<mxfile host="app.diagrams.net" modified="2023-11-28T23:43:31.279Z" agent="Mozilla/5.0 (Windows NT 10.0; Win64; x64) AppleWebKit/537.36 (KHTML, like Gecko) Chrome/119.0.0.0 Safari/537.36" etag="RYePqRIFNv-hi_nIefrU" version="22.1.4" type="google">
  <diagram name="Page-1" id="aacV5RZyoDqz7-Jz2e4k">
    <mxGraphModel grid="1" page="1" gridSize="10" guides="1" tooltips="1" connect="1" arrows="1" fold="1" pageScale="1" pageWidth="850" pageHeight="1100" math="0" shadow="0">
      <root>
        <mxCell id="0" />
        <mxCell id="1" parent="0" />
        <mxCell id="YrpZZZnXuAw49HL5LtXr-3" value="" style="edgeStyle=orthogonalEdgeStyle;rounded=1;orthogonalLoop=1;jettySize=auto;html=1;" edge="1" parent="1" source="YrpZZZnXuAw49HL5LtXr-1" target="YrpZZZnXuAw49HL5LtXr-2">
          <mxGeometry relative="1" as="geometry" />
        </mxCell>
        <mxCell id="YrpZZZnXuAw49HL5LtXr-5" value="" style="edgeStyle=orthogonalEdgeStyle;rounded=1;orthogonalLoop=1;jettySize=auto;html=1;" edge="1" parent="1" source="YrpZZZnXuAw49HL5LtXr-1" target="YrpZZZnXuAw49HL5LtXr-4">
          <mxGeometry relative="1" as="geometry" />
        </mxCell>
        <mxCell id="YrpZZZnXuAw49HL5LtXr-1" value="Urban Routes" style="rounded=1;whiteSpace=wrap;html=1;" vertex="1" parent="1">
          <mxGeometry x="370" y="240" width="120" height="60" as="geometry" />
        </mxCell>
        <mxCell id="YrpZZZnXuAw49HL5LtXr-7" value="" style="rounded=1;orthogonalLoop=1;jettySize=auto;html=1;" edge="1" parent="1" source="YrpZZZnXuAw49HL5LtXr-2" target="YrpZZZnXuAw49HL5LtXr-6">
          <mxGeometry relative="1" as="geometry" />
        </mxCell>
        <mxCell id="YrpZZZnXuAw49HL5LtXr-9" value="" style="rounded=1;orthogonalLoop=1;jettySize=auto;html=1;" edge="1" parent="1" source="YrpZZZnXuAw49HL5LtXr-2" target="YrpZZZnXuAw49HL5LtXr-8">
          <mxGeometry relative="1" as="geometry" />
        </mxCell>
        <mxCell id="YrpZZZnXuAw49HL5LtXr-17" value="" style="rounded=1;orthogonalLoop=1;jettySize=auto;html=1;" edge="1" parent="1" source="YrpZZZnXuAw49HL5LtXr-2" target="YrpZZZnXuAw49HL5LtXr-16">
          <mxGeometry relative="1" as="geometry" />
        </mxCell>
        <mxCell id="YrpZZZnXuAw49HL5LtXr-19" value="" style="rounded=1;orthogonalLoop=1;jettySize=auto;html=1;" edge="1" parent="1" source="YrpZZZnXuAw49HL5LtXr-2" target="YrpZZZnXuAw49HL5LtXr-18">
          <mxGeometry relative="1" as="geometry" />
        </mxCell>
        <mxCell id="YrpZZZnXuAw49HL5LtXr-21" value="" style="edgeStyle=orthogonalEdgeStyle;rounded=1;orthogonalLoop=1;jettySize=auto;html=1;" edge="1" parent="1" source="YrpZZZnXuAw49HL5LtXr-2" target="YrpZZZnXuAw49HL5LtXr-20">
          <mxGeometry relative="1" as="geometry" />
        </mxCell>
        <mxCell id="YrpZZZnXuAw49HL5LtXr-2" value="Interface" style="whiteSpace=wrap;html=1;rounded=1;" vertex="1" parent="1">
          <mxGeometry x="170" y="240" width="120" height="60" as="geometry" />
        </mxCell>
        <mxCell id="YrpZZZnXuAw49HL5LtXr-82" value="" style="rounded=1;orthogonalLoop=1;jettySize=auto;html=1;" edge="1" parent="1" source="YrpZZZnXuAw49HL5LtXr-4" target="YrpZZZnXuAw49HL5LtXr-81">
          <mxGeometry relative="1" as="geometry" />
        </mxCell>
        <mxCell id="YrpZZZnXuAw49HL5LtXr-84" value="" style="rounded=1;orthogonalLoop=1;jettySize=auto;html=1;" edge="1" parent="1" source="YrpZZZnXuAw49HL5LtXr-4" target="YrpZZZnXuAw49HL5LtXr-83">
          <mxGeometry relative="1" as="geometry" />
        </mxCell>
        <mxCell id="YrpZZZnXuAw49HL5LtXr-86" value="" style="rounded=1;orthogonalLoop=1;jettySize=auto;html=1;" edge="1" parent="1" source="YrpZZZnXuAw49HL5LtXr-4" target="YrpZZZnXuAw49HL5LtXr-85">
          <mxGeometry relative="1" as="geometry" />
        </mxCell>
        <mxCell id="YrpZZZnXuAw49HL5LtXr-4" value="Lógica" style="whiteSpace=wrap;html=1;rounded=1;" vertex="1" parent="1">
          <mxGeometry x="570" y="240" width="120" height="60" as="geometry" />
        </mxCell>
        <mxCell id="YrpZZZnXuAw49HL5LtXr-11" value="" style="rounded=1;orthogonalLoop=1;jettySize=auto;html=1;" edge="1" parent="1" target="YrpZZZnXuAw49HL5LtXr-10">
          <mxGeometry relative="1" as="geometry">
            <mxPoint x="-54" y="157.909090909091" as="sourcePoint" />
          </mxGeometry>
        </mxCell>
        <mxCell id="YrpZZZnXuAw49HL5LtXr-15" value="" style="rounded=1;orthogonalLoop=1;jettySize=auto;html=1;" edge="1" parent="1" target="YrpZZZnXuAw49HL5LtXr-14">
          <mxGeometry relative="1" as="geometry">
            <mxPoint x="-54" y="172.45454545454538" as="sourcePoint" />
          </mxGeometry>
        </mxCell>
        <mxCell id="YrpZZZnXuAw49HL5LtXr-6" value="Painel de Seleção de Endereço" style="whiteSpace=wrap;html=1;rounded=1;" vertex="1" parent="1">
          <mxGeometry x="-53" y="137" width="120" height="60" as="geometry" />
        </mxCell>
        <mxCell id="YrpZZZnXuAw49HL5LtXr-8" value="Logotipo" style="whiteSpace=wrap;html=1;rounded=1;" vertex="1" parent="1">
          <mxGeometry x="-51" y="36" width="120" height="60" as="geometry" />
        </mxCell>
        <mxCell id="YrpZZZnXuAw49HL5LtXr-10" value="Campo DE" style="whiteSpace=wrap;html=1;rounded=1;" vertex="1" parent="1">
          <mxGeometry x="-204" y="127" width="90" height="30" as="geometry" />
        </mxCell>
        <mxCell id="YrpZZZnXuAw49HL5LtXr-14" value="Campo PARA" style="whiteSpace=wrap;html=1;rounded=1;" vertex="1" parent="1">
          <mxGeometry x="-204" y="167" width="90" height="30" as="geometry" />
        </mxCell>
        <mxCell id="YrpZZZnXuAw49HL5LtXr-64" value="" style="rounded=1;orthogonalLoop=1;jettySize=auto;html=1;" edge="1" parent="1" source="YrpZZZnXuAw49HL5LtXr-16" target="YrpZZZnXuAw49HL5LtXr-63">
          <mxGeometry relative="1" as="geometry" />
        </mxCell>
        <mxCell id="YrpZZZnXuAw49HL5LtXr-16" value="Mapa" style="whiteSpace=wrap;html=1;rounded=1;" vertex="1" parent="1">
          <mxGeometry x="-53" y="939.5" width="120" height="60" as="geometry" />
        </mxCell>
        <mxCell id="YrpZZZnXuAw49HL5LtXr-31" value="" style="rounded=1;orthogonalLoop=1;jettySize=auto;html=1;" edge="1" parent="1" source="YrpZZZnXuAw49HL5LtXr-18" target="YrpZZZnXuAw49HL5LtXr-30">
          <mxGeometry relative="1" as="geometry" />
        </mxCell>
        <mxCell id="YrpZZZnXuAw49HL5LtXr-33" value="" style="rounded=1;orthogonalLoop=1;jettySize=auto;html=1;entryX=1;entryY=0.5;entryDx=0;entryDy=0;" edge="1" parent="1" source="YrpZZZnXuAw49HL5LtXr-18" target="YrpZZZnXuAw49HL5LtXr-45">
          <mxGeometry relative="1" as="geometry">
            <mxPoint x="-162.1123595505619" y="536" as="targetPoint" />
          </mxGeometry>
        </mxCell>
        <mxCell id="YrpZZZnXuAw49HL5LtXr-18" value="Painel de Tipo de Transporte e Modo de Seleção" style="whiteSpace=wrap;html=1;rounded=1;" vertex="1" parent="1">
          <mxGeometry x="-50" y="580" width="120" height="60" as="geometry" />
        </mxCell>
        <mxCell id="YrpZZZnXuAw49HL5LtXr-23" value="" style="rounded=1;orthogonalLoop=1;jettySize=auto;html=1;edgeStyle=orthogonalEdgeStyle;entryX=1;entryY=0.5;entryDx=0;entryDy=0;exitX=0;exitY=0.5;exitDx=0;exitDy=0;" edge="1" parent="1" source="YrpZZZnXuAw49HL5LtXr-20" target="YrpZZZnXuAw49HL5LtXr-22">
          <mxGeometry relative="1" as="geometry">
            <mxPoint x="-54" y="291.2765957446809" as="sourcePoint" />
            <mxPoint x="-216" y="348.7234042553192" as="targetPoint" />
          </mxGeometry>
        </mxCell>
        <mxCell id="YrpZZZnXuAw49HL5LtXr-25" value="" style="rounded=1;orthogonalLoop=1;jettySize=auto;html=1;edgeStyle=orthogonalEdgeStyle;entryX=1;entryY=0.5;entryDx=0;entryDy=0;exitX=0;exitY=0.5;exitDx=0;exitDy=0;" edge="1" parent="1" source="YrpZZZnXuAw49HL5LtXr-20" target="YrpZZZnXuAw49HL5LtXr-24">
          <mxGeometry relative="1" as="geometry">
            <mxPoint x="-54" y="280.63829787234056" as="sourcePoint" />
          </mxGeometry>
        </mxCell>
        <mxCell id="YrpZZZnXuAw49HL5LtXr-27" value="" style="rounded=1;orthogonalLoop=1;jettySize=auto;html=1;edgeStyle=orthogonalEdgeStyle;entryX=1;entryY=0.5;entryDx=0;entryDy=0;" edge="1" parent="1" target="YrpZZZnXuAw49HL5LtXr-26">
          <mxGeometry relative="1" as="geometry">
            <mxPoint x="-54" y="272.1276595744681" as="sourcePoint" />
          </mxGeometry>
        </mxCell>
        <mxCell id="YrpZZZnXuAw49HL5LtXr-29" value="" style="rounded=1;orthogonalLoop=1;jettySize=auto;html=1;edgeStyle=orthogonalEdgeStyle;entryX=1;entryY=0.5;entryDx=0;entryDy=0;exitX=0;exitY=0.5;exitDx=0;exitDy=0;" edge="1" parent="1" source="YrpZZZnXuAw49HL5LtXr-20" target="YrpZZZnXuAw49HL5LtXr-28">
          <mxGeometry relative="1" as="geometry">
            <mxPoint x="-54" y="263.61702127659566" as="sourcePoint" />
          </mxGeometry>
        </mxCell>
        <mxCell id="YrpZZZnXuAw49HL5LtXr-20" value="Painel de Informações" style="whiteSpace=wrap;html=1;rounded=1;fillColor=#f0a30a;strokeColor=#BD7000;fontColor=#000000;" vertex="1" parent="1">
          <mxGeometry x="-50" y="240" width="120" height="60" as="geometry" />
        </mxCell>
        <mxCell id="YrpZZZnXuAw49HL5LtXr-22" value="Texto Tipo de Transporte selecionado" style="whiteSpace=wrap;html=1;rounded=1;" vertex="1" parent="1">
          <mxGeometry x="-336" y="337" width="120" height="50" as="geometry" />
        </mxCell>
        <mxCell id="YrpZZZnXuAw49HL5LtXr-24" value="Botão &quot;Reservar&quot;" style="whiteSpace=wrap;html=1;rounded=1;" vertex="1" parent="1">
          <mxGeometry x="-336" y="297" width="120" height="30" as="geometry" />
        </mxCell>
        <mxCell id="YrpZZZnXuAw49HL5LtXr-26" value="Botão &quot;Chamar um Táxi&quot;" style="whiteSpace=wrap;html=1;rounded=1;" vertex="1" parent="1">
          <mxGeometry x="-336" y="257" width="120" height="30" as="geometry" />
        </mxCell>
        <mxCell id="YrpZZZnXuAw49HL5LtXr-28" value="Custo da Corrida" style="whiteSpace=wrap;html=1;rounded=1;" vertex="1" parent="1">
          <mxGeometry x="-336" y="217" width="120" height="30" as="geometry" />
        </mxCell>
        <mxCell id="XJxLE5m_I-K4SvwRsQMy-5" value="" style="edgeStyle=orthogonalEdgeStyle;rounded=1;orthogonalLoop=1;jettySize=auto;html=1;entryX=1;entryY=0.5;entryDx=0;entryDy=0;fillColor=#fa6800;strokeColor=#C73500;" edge="1" parent="1" source="YrpZZZnXuAw49HL5LtXr-30" target="XJxLE5m_I-K4SvwRsQMy-3">
          <mxGeometry relative="1" as="geometry" />
        </mxCell>
        <mxCell id="XJxLE5m_I-K4SvwRsQMy-6" value="" style="edgeStyle=orthogonalEdgeStyle;rounded=1;orthogonalLoop=1;jettySize=auto;html=1;entryX=1;entryY=0.5;entryDx=0;entryDy=0;fillColor=#fa6800;strokeColor=#C73500;" edge="1" parent="1" source="YrpZZZnXuAw49HL5LtXr-30" target="YrpZZZnXuAw49HL5LtXr-34">
          <mxGeometry relative="1" as="geometry" />
        </mxCell>
        <mxCell id="YrpZZZnXuAw49HL5LtXr-30" value="Modo de Seleção" style="whiteSpace=wrap;html=1;rounded=1;fillColor=#fa6800;fontColor=#000000;strokeColor=#C73500;" vertex="1" parent="1">
          <mxGeometry x="-257" y="725" width="120" height="30" as="geometry" />
        </mxCell>
        <mxCell id="YrpZZZnXuAw49HL5LtXr-34" value="Flash" style="whiteSpace=wrap;html=1;rounded=1;fillColor=#fa6800;fontColor=#000000;strokeColor=#C73500;" vertex="1" parent="1">
          <mxGeometry x="-445" y="724" width="120" height="30" as="geometry" />
        </mxCell>
        <mxCell id="YrpZZZnXuAw49HL5LtXr-36" value="Optimal" style="whiteSpace=wrap;html=1;rounded=1;fillColor=#fa6800;fontColor=#000000;strokeColor=#C73500;" vertex="1" parent="1">
          <mxGeometry x="-445" y="688" width="120" height="30" as="geometry" />
        </mxCell>
        <mxCell id="YrpZZZnXuAw49HL5LtXr-53" value="" style="rounded=1;orthogonalLoop=1;jettySize=auto;html=1;entryX=1;entryY=0.5;entryDx=0;entryDy=0;edgeStyle=orthogonalEdgeStyle;fillColor=#fa6800;strokeColor=#C73500;" edge="1" parent="1" source="YrpZZZnXuAw49HL5LtXr-45" target="YrpZZZnXuAw49HL5LtXr-52">
          <mxGeometry relative="1" as="geometry" />
        </mxCell>
        <mxCell id="YrpZZZnXuAw49HL5LtXr-56" value="" style="rounded=1;orthogonalLoop=1;jettySize=auto;html=1;entryX=1;entryY=0.5;entryDx=0;entryDy=0;edgeStyle=orthogonalEdgeStyle;fillColor=#fa6800;strokeColor=#C73500;" edge="1" parent="1" source="YrpZZZnXuAw49HL5LtXr-45" target="YrpZZZnXuAw49HL5LtXr-55">
          <mxGeometry relative="1" as="geometry" />
        </mxCell>
        <mxCell id="YrpZZZnXuAw49HL5LtXr-58" value="" style="rounded=1;orthogonalLoop=1;jettySize=auto;html=1;entryX=1;entryY=0.5;entryDx=0;entryDy=0;edgeStyle=orthogonalEdgeStyle;fillColor=#fa6800;strokeColor=#C73500;" edge="1" parent="1" source="YrpZZZnXuAw49HL5LtXr-45" target="YrpZZZnXuAw49HL5LtXr-57">
          <mxGeometry relative="1" as="geometry" />
        </mxCell>
        <mxCell id="YrpZZZnXuAw49HL5LtXr-61" value="" style="rounded=1;orthogonalLoop=1;jettySize=auto;html=1;edgeStyle=orthogonalEdgeStyle;exitX=0;exitY=0.5;exitDx=0;exitDy=0;entryX=1;entryY=0.5;entryDx=0;entryDy=0;fillColor=#fa6800;strokeColor=#C73500;" edge="1" parent="1" source="YrpZZZnXuAw49HL5LtXr-45" target="YrpZZZnXuAw49HL5LtXr-60">
          <mxGeometry relative="1" as="geometry" />
        </mxCell>
        <mxCell id="YrpZZZnXuAw49HL5LtXr-45" value="Tipo de Transporte" style="whiteSpace=wrap;html=1;rounded=1;fillColor=#fa6800;fontColor=#000000;strokeColor=#C73500;" vertex="1" parent="1">
          <mxGeometry x="-244" y="512" width="120" height="30" as="geometry" />
        </mxCell>
        <mxCell id="YrpZZZnXuAw49HL5LtXr-47" value="Share" style="whiteSpace=wrap;html=1;rounded=1;fillColor=#fa6800;fontColor=#000000;strokeColor=#C73500;" vertex="1" parent="1">
          <mxGeometry x="-445" y="602" width="120" height="30" as="geometry" />
        </mxCell>
        <mxCell id="YrpZZZnXuAw49HL5LtXr-51" value="" style="rounded=1;orthogonalLoop=1;jettySize=auto;html=1;entryX=1;entryY=0.5;entryDx=0;entryDy=0;edgeStyle=orthogonalEdgeStyle;fillColor=#fa6800;strokeColor=#C73500;" edge="1" parent="1" source="YrpZZZnXuAw49HL5LtXr-45" target="YrpZZZnXuAw49HL5LtXr-49">
          <mxGeometry relative="1" as="geometry">
            <mxPoint x="-411" y="561" as="sourcePoint" />
            <mxPoint x="-573" y="686" as="targetPoint" />
          </mxGeometry>
        </mxCell>
        <mxCell id="YrpZZZnXuAw49HL5LtXr-49" value="Scooter" style="whiteSpace=wrap;html=1;rounded=1;fillColor=#fa6800;fontColor=#000000;strokeColor=#C73500;" vertex="1" parent="1">
          <mxGeometry x="-445" y="562" width="120" height="30" as="geometry" />
        </mxCell>
        <mxCell id="YrpZZZnXuAw49HL5LtXr-52" value="Bicicleta" style="whiteSpace=wrap;html=1;rounded=1;fillColor=#fa6800;fontColor=#000000;strokeColor=#C73500;" vertex="1" parent="1">
          <mxGeometry x="-445" y="522" width="120" height="30" as="geometry" />
        </mxCell>
        <mxCell id="YrpZZZnXuAw49HL5LtXr-54" value="" style="endArrow=classic;html=1;rounded=1;exitX=0;exitY=0.5;exitDx=0;exitDy=0;entryX=1;entryY=0.5;entryDx=0;entryDy=0;edgeStyle=orthogonalEdgeStyle;fillColor=#fa6800;strokeColor=#C73500;" edge="1" parent="1" source="YrpZZZnXuAw49HL5LtXr-45" target="YrpZZZnXuAw49HL5LtXr-47">
          <mxGeometry width="50" height="50" relative="1" as="geometry">
            <mxPoint x="-262" y="511" as="sourcePoint" />
            <mxPoint x="-212" y="461" as="targetPoint" />
          </mxGeometry>
        </mxCell>
        <mxCell id="YrpZZZnXuAw49HL5LtXr-55" value="A pé" style="whiteSpace=wrap;html=1;rounded=1;fillColor=#fa6800;fontColor=#000000;strokeColor=#C73500;" vertex="1" parent="1">
          <mxGeometry x="-445" y="482" width="120" height="30" as="geometry" />
        </mxCell>
        <mxCell id="YrpZZZnXuAw49HL5LtXr-57" value="Táxi" style="whiteSpace=wrap;html=1;rounded=1;fillColor=#fa6800;fontColor=#000000;strokeColor=#C73500;" vertex="1" parent="1">
          <mxGeometry x="-445" y="447" width="120" height="30" as="geometry" />
        </mxCell>
        <mxCell id="YrpZZZnXuAw49HL5LtXr-60" value="Carro" style="whiteSpace=wrap;html=1;rounded=1;fillColor=#fa6800;fontColor=#000000;strokeColor=#C73500;" vertex="1" parent="1">
          <mxGeometry x="-445" y="412" width="120" height="30" as="geometry" />
        </mxCell>
        <mxCell id="YrpZZZnXuAw49HL5LtXr-66" value="" style="rounded=1;orthogonalLoop=1;jettySize=auto;html=1;exitX=0;exitY=0.5;exitDx=0;exitDy=0;entryX=1;entryY=0.5;entryDx=0;entryDy=0;edgeStyle=orthogonalEdgeStyle;" edge="1" parent="1" source="YrpZZZnXuAw49HL5LtXr-63" target="YrpZZZnXuAw49HL5LtXr-65">
          <mxGeometry relative="1" as="geometry" />
        </mxCell>
        <mxCell id="YrpZZZnXuAw49HL5LtXr-63" value="Visualização" style="whiteSpace=wrap;html=1;rounded=1;" vertex="1" parent="1">
          <mxGeometry x="-244" y="908" width="120" height="30" as="geometry" />
        </mxCell>
        <mxCell id="YrpZZZnXuAw49HL5LtXr-65" value="Mapa" style="whiteSpace=wrap;html=1;rounded=1;" vertex="1" parent="1">
          <mxGeometry x="-445" y="853" width="120" height="30" as="geometry" />
        </mxCell>
        <mxCell id="YrpZZZnXuAw49HL5LtXr-67" value="Satélite" style="whiteSpace=wrap;html=1;rounded=1;" vertex="1" parent="1">
          <mxGeometry x="-445" y="893" width="120" height="30" as="geometry" />
        </mxCell>
        <mxCell id="YrpZZZnXuAw49HL5LtXr-68" value="Street View" style="whiteSpace=wrap;html=1;rounded=1;" vertex="1" parent="1">
          <mxGeometry x="-445" y="933" width="120" height="30" as="geometry" />
        </mxCell>
        <mxCell id="YrpZZZnXuAw49HL5LtXr-69" value="" style="endArrow=classic;html=1;rounded=1;exitX=0;exitY=0.5;exitDx=0;exitDy=0;entryX=1;entryY=0.75;entryDx=0;entryDy=0;edgeStyle=orthogonalEdgeStyle;" edge="1" parent="1" source="YrpZZZnXuAw49HL5LtXr-63" target="YrpZZZnXuAw49HL5LtXr-67">
          <mxGeometry width="50" height="50" relative="1" as="geometry">
            <mxPoint x="-250" y="993" as="sourcePoint" />
            <mxPoint x="-200" y="943" as="targetPoint" />
          </mxGeometry>
        </mxCell>
        <mxCell id="YrpZZZnXuAw49HL5LtXr-70" value="" style="endArrow=classic;html=1;rounded=1;exitX=0;exitY=0.5;exitDx=0;exitDy=0;entryX=1;entryY=0.5;entryDx=0;entryDy=0;edgeStyle=orthogonalEdgeStyle;" edge="1" parent="1" source="YrpZZZnXuAw49HL5LtXr-63" target="YrpZZZnXuAw49HL5LtXr-68">
          <mxGeometry width="50" height="50" relative="1" as="geometry">
            <mxPoint x="-240" y="1003" as="sourcePoint" />
            <mxPoint x="-190" y="953" as="targetPoint" />
          </mxGeometry>
        </mxCell>
        <mxCell id="YrpZZZnXuAw49HL5LtXr-76" value="" style="rounded=1;orthogonalLoop=1;jettySize=auto;html=1;edgeStyle=orthogonalEdgeStyle;" edge="1" parent="1" source="YrpZZZnXuAw49HL5LtXr-73" target="YrpZZZnXuAw49HL5LtXr-75">
          <mxGeometry relative="1" as="geometry" />
        </mxCell>
        <mxCell id="YrpZZZnXuAw49HL5LtXr-73" value="Zoom" style="whiteSpace=wrap;html=1;rounded=1;" vertex="1" parent="1">
          <mxGeometry x="-244" y="1027" width="120" height="30" as="geometry" />
        </mxCell>
        <mxCell id="YrpZZZnXuAw49HL5LtXr-75" value="+" style="whiteSpace=wrap;html=1;rounded=1;" vertex="1" parent="1">
          <mxGeometry x="-445" y="1026" width="120" height="30" as="geometry" />
        </mxCell>
        <mxCell id="YrpZZZnXuAw49HL5LtXr-77" value="-" style="whiteSpace=wrap;html=1;rounded=1;" vertex="1" parent="1">
          <mxGeometry x="-445" y="1066" width="120" height="30" as="geometry" />
        </mxCell>
        <mxCell id="YrpZZZnXuAw49HL5LtXr-79" value="" style="endArrow=classic;html=1;rounded=1;exitX=0;exitY=0.5;exitDx=0;exitDy=0;entryX=1;entryY=0.5;entryDx=0;entryDy=0;edgeStyle=orthogonalEdgeStyle;" edge="1" parent="1" source="YrpZZZnXuAw49HL5LtXr-73" target="YrpZZZnXuAw49HL5LtXr-77">
          <mxGeometry width="50" height="50" relative="1" as="geometry">
            <mxPoint x="-260" y="887" as="sourcePoint" />
            <mxPoint x="-210" y="837" as="targetPoint" />
          </mxGeometry>
        </mxCell>
        <mxCell id="YrpZZZnXuAw49HL5LtXr-80" value="" style="endArrow=classic;html=1;rounded=1;exitX=0;exitY=0.5;exitDx=0;exitDy=0;entryX=1;entryY=0.5;entryDx=0;entryDy=0;" edge="1" parent="1" source="YrpZZZnXuAw49HL5LtXr-16" target="YrpZZZnXuAw49HL5LtXr-73">
          <mxGeometry width="50" height="50" relative="1" as="geometry">
            <mxPoint x="-260" y="858" as="sourcePoint" />
            <mxPoint x="-210" y="808" as="targetPoint" />
          </mxGeometry>
        </mxCell>
        <mxCell id="YrpZZZnXuAw49HL5LtXr-88" value="" style="rounded=1;orthogonalLoop=1;jettySize=auto;html=1;edgeStyle=orthogonalEdgeStyle;" edge="1" parent="1" source="YrpZZZnXuAw49HL5LtXr-81" target="YrpZZZnXuAw49HL5LtXr-87">
          <mxGeometry relative="1" as="geometry" />
        </mxCell>
        <mxCell id="YrpZZZnXuAw49HL5LtXr-81" value="Verificando correção de Entrada dos campos" style="whiteSpace=wrap;html=1;rounded=1;" vertex="1" parent="1">
          <mxGeometry x="770" y="10" width="120" height="60" as="geometry" />
        </mxCell>
        <mxCell id="YrpZZZnXuAw49HL5LtXr-147" value="" style="rounded=1;orthogonalLoop=1;jettySize=auto;html=1;edgeStyle=orthogonalEdgeStyle;entryX=0;entryY=0.5;entryDx=0;entryDy=0;" edge="1" parent="1" source="YrpZZZnXuAw49HL5LtXr-83" target="YrpZZZnXuAw49HL5LtXr-146">
          <mxGeometry relative="1" as="geometry" />
        </mxCell>
        <mxCell id="YrpZZZnXuAw49HL5LtXr-149" value="" style="rounded=1;orthogonalLoop=1;jettySize=auto;html=1;exitX=1;exitY=0.5;exitDx=0;exitDy=0;edgeStyle=orthogonalEdgeStyle;entryX=0;entryY=0.5;entryDx=0;entryDy=0;" edge="1" parent="1" source="YrpZZZnXuAw49HL5LtXr-83" target="YrpZZZnXuAw49HL5LtXr-148">
          <mxGeometry relative="1" as="geometry">
            <mxPoint x="890.0000000000005" y="932" as="sourcePoint" />
          </mxGeometry>
        </mxCell>
        <mxCell id="YrpZZZnXuAw49HL5LtXr-151" value="" style="rounded=1;orthogonalLoop=1;jettySize=auto;html=1;exitX=1;exitY=0.5;exitDx=0;exitDy=0;edgeStyle=orthogonalEdgeStyle;entryX=0;entryY=0.5;entryDx=0;entryDy=0;" edge="1" parent="1" source="YrpZZZnXuAw49HL5LtXr-83" target="YrpZZZnXuAw49HL5LtXr-150">
          <mxGeometry relative="1" as="geometry" />
        </mxCell>
        <mxCell id="YrpZZZnXuAw49HL5LtXr-153" value="" style="rounded=1;orthogonalLoop=1;jettySize=auto;html=1;exitX=1;exitY=0.5;exitDx=0;exitDy=0;edgeStyle=orthogonalEdgeStyle;entryX=0;entryY=0.5;entryDx=0;entryDy=0;" edge="1" parent="1" source="YrpZZZnXuAw49HL5LtXr-83" target="YrpZZZnXuAw49HL5LtXr-152">
          <mxGeometry relative="1" as="geometry" />
        </mxCell>
        <mxCell id="YrpZZZnXuAw49HL5LtXr-155" value="" style="rounded=1;orthogonalLoop=1;jettySize=auto;html=1;exitX=1;exitY=0.5;exitDx=0;exitDy=0;edgeStyle=orthogonalEdgeStyle;entryX=0;entryY=0.5;entryDx=0;entryDy=0;" edge="1" parent="1" source="YrpZZZnXuAw49HL5LtXr-83" target="YrpZZZnXuAw49HL5LtXr-154">
          <mxGeometry relative="1" as="geometry">
            <Array as="points">
              <mxPoint x="930" y="830" />
            </Array>
          </mxGeometry>
        </mxCell>
        <mxCell id="YrpZZZnXuAw49HL5LtXr-158" value="" style="rounded=1;orthogonalLoop=1;jettySize=auto;html=1;entryX=0;entryY=0.5;entryDx=0;entryDy=0;edgeStyle=orthogonalEdgeStyle;exitX=1;exitY=0.5;exitDx=0;exitDy=0;" edge="1" parent="1" source="YrpZZZnXuAw49HL5LtXr-83" target="YrpZZZnXuAw49HL5LtXr-222">
          <mxGeometry relative="1" as="geometry">
            <mxPoint x="890" y="820" as="sourcePoint" />
          </mxGeometry>
        </mxCell>
        <mxCell id="YrpZZZnXuAw49HL5LtXr-83" value="Cálculo de tempo e custo da viagem" style="whiteSpace=wrap;html=1;rounded=1;" vertex="1" parent="1">
          <mxGeometry x="770" y="799" width="120" height="60" as="geometry" />
        </mxCell>
        <mxCell id="YrpZZZnXuAw49HL5LtXr-109" value="" style="rounded=1;orthogonalLoop=1;jettySize=auto;html=1;entryX=0;entryY=0.75;entryDx=0;entryDy=0;edgeStyle=orthogonalEdgeStyle;exitX=0.998;exitY=0.407;exitDx=0;exitDy=0;exitPerimeter=0;" edge="1" parent="1" source="YrpZZZnXuAw49HL5LtXr-85" target="YrpZZZnXuAw49HL5LtXr-108">
          <mxGeometry relative="1" as="geometry" />
        </mxCell>
        <mxCell id="YrpZZZnXuAw49HL5LtXr-85" value="Selecionando modo e tipo de transporte" style="whiteSpace=wrap;html=1;rounded=1;" vertex="1" parent="1">
          <mxGeometry x="770" y="262" width="120" height="60" as="geometry" />
        </mxCell>
        <mxCell id="YrpZZZnXuAw49HL5LtXr-92" value="" style="rounded=1;orthogonalLoop=1;jettySize=auto;html=1;" edge="1" parent="1" source="YrpZZZnXuAw49HL5LtXr-87" target="YrpZZZnXuAw49HL5LtXr-91">
          <mxGeometry relative="1" as="geometry" />
        </mxCell>
        <mxCell id="YrpZZZnXuAw49HL5LtXr-95" value="" style="edgeStyle=orthogonalEdgeStyle;rounded=1;orthogonalLoop=1;jettySize=auto;html=1;" edge="1" parent="1" source="YrpZZZnXuAw49HL5LtXr-87" target="YrpZZZnXuAw49HL5LtXr-94">
          <mxGeometry relative="1" as="geometry" />
        </mxCell>
        <mxCell id="YrpZZZnXuAw49HL5LtXr-87" value="Campo DE" style="whiteSpace=wrap;html=1;rounded=1;" vertex="1" parent="1">
          <mxGeometry x="970" y="10" width="120" height="30" as="geometry" />
        </mxCell>
        <mxCell id="YrpZZZnXuAw49HL5LtXr-89" value="Campo PARA" style="whiteSpace=wrap;html=1;rounded=1;" vertex="1" parent="1">
          <mxGeometry x="970" y="97" width="120" height="30" as="geometry" />
        </mxCell>
        <mxCell id="YrpZZZnXuAw49HL5LtXr-90" value="" style="endArrow=classic;html=1;rounded=1;exitX=1;exitY=0.5;exitDx=0;exitDy=0;entryX=0;entryY=0.5;entryDx=0;entryDy=0;edgeStyle=orthogonalEdgeStyle;" edge="1" parent="1" source="YrpZZZnXuAw49HL5LtXr-81" target="YrpZZZnXuAw49HL5LtXr-89">
          <mxGeometry width="50" height="50" relative="1" as="geometry">
            <mxPoint x="760" y="-140" as="sourcePoint" />
            <mxPoint x="810" y="-190" as="targetPoint" />
          </mxGeometry>
        </mxCell>
        <mxCell id="YrpZZZnXuAw49HL5LtXr-99" value="" style="edgeStyle=orthogonalEdgeStyle;rounded=1;orthogonalLoop=1;jettySize=auto;html=1;" edge="1" parent="1" source="YrpZZZnXuAw49HL5LtXr-91" target="YrpZZZnXuAw49HL5LtXr-98">
          <mxGeometry relative="1" as="geometry" />
        </mxCell>
        <mxCell id="YrpZZZnXuAw49HL5LtXr-91" value="Endereço Inválido" style="whiteSpace=wrap;html=1;rounded=1;" vertex="1" parent="1">
          <mxGeometry x="1170" y="48" width="120" height="30" as="geometry" />
        </mxCell>
        <mxCell id="YrpZZZnXuAw49HL5LtXr-97" value="" style="edgeStyle=orthogonalEdgeStyle;rounded=1;orthogonalLoop=1;jettySize=auto;html=1;" edge="1" parent="1" source="YrpZZZnXuAw49HL5LtXr-94" target="YrpZZZnXuAw49HL5LtXr-96">
          <mxGeometry relative="1" as="geometry" />
        </mxCell>
        <mxCell id="YrpZZZnXuAw49HL5LtXr-94" value="Endereço Válido" style="whiteSpace=wrap;html=1;rounded=1;" vertex="1" parent="1">
          <mxGeometry x="1170" y="10" width="120" height="30" as="geometry" />
        </mxCell>
        <mxCell id="YrpZZZnXuAw49HL5LtXr-96" value="Ponto A é exibido no Mapa" style="whiteSpace=wrap;html=1;rounded=1;" vertex="1" parent="1">
          <mxGeometry x="1370" y="10" width="170" height="30" as="geometry" />
        </mxCell>
        <mxCell id="YrpZZZnXuAw49HL5LtXr-98" value="Caixa de Seleção fica em em vermelho Mensagem Inserir o Endereço em Vermelho" style="whiteSpace=wrap;html=1;rounded=1;" vertex="1" parent="1">
          <mxGeometry x="1370" y="48" width="300" height="30" as="geometry" />
        </mxCell>
        <mxCell id="YrpZZZnXuAw49HL5LtXr-100" value="" style="rounded=1;orthogonalLoop=1;jettySize=auto;html=1;exitX=1;exitY=0.5;exitDx=0;exitDy=0;" edge="1" parent="1" source="YrpZZZnXuAw49HL5LtXr-89" target="YrpZZZnXuAw49HL5LtXr-103">
          <mxGeometry relative="1" as="geometry">
            <mxPoint x="1090" y="123" as="sourcePoint" />
          </mxGeometry>
        </mxCell>
        <mxCell id="YrpZZZnXuAw49HL5LtXr-101" value="" style="edgeStyle=orthogonalEdgeStyle;rounded=1;orthogonalLoop=1;jettySize=auto;html=1;exitX=1;exitY=0.5;exitDx=0;exitDy=0;" edge="1" parent="1" source="YrpZZZnXuAw49HL5LtXr-89" target="YrpZZZnXuAw49HL5LtXr-105">
          <mxGeometry relative="1" as="geometry">
            <mxPoint x="1090" y="112" as="sourcePoint" />
          </mxGeometry>
        </mxCell>
        <mxCell id="YrpZZZnXuAw49HL5LtXr-102" value="" style="edgeStyle=orthogonalEdgeStyle;rounded=1;orthogonalLoop=1;jettySize=auto;html=1;" edge="1" parent="1" source="YrpZZZnXuAw49HL5LtXr-103" target="YrpZZZnXuAw49HL5LtXr-107">
          <mxGeometry relative="1" as="geometry" />
        </mxCell>
        <mxCell id="YrpZZZnXuAw49HL5LtXr-103" value="Endereço Inválido" style="whiteSpace=wrap;html=1;rounded=1;" vertex="1" parent="1">
          <mxGeometry x="1170" y="135" width="120" height="30" as="geometry" />
        </mxCell>
        <mxCell id="YrpZZZnXuAw49HL5LtXr-104" value="" style="edgeStyle=orthogonalEdgeStyle;rounded=1;orthogonalLoop=1;jettySize=auto;html=1;" edge="1" parent="1" source="YrpZZZnXuAw49HL5LtXr-105" target="YrpZZZnXuAw49HL5LtXr-106">
          <mxGeometry relative="1" as="geometry" />
        </mxCell>
        <mxCell id="YrpZZZnXuAw49HL5LtXr-105" value="Endereço Válido" style="whiteSpace=wrap;html=1;rounded=1;" vertex="1" parent="1">
          <mxGeometry x="1170" y="97" width="120" height="30" as="geometry" />
        </mxCell>
        <mxCell id="YrpZZZnXuAw49HL5LtXr-106" value="Ponto B é exibido no Mapa" style="whiteSpace=wrap;html=1;rounded=1;" vertex="1" parent="1">
          <mxGeometry x="1370" y="97" width="170" height="30" as="geometry" />
        </mxCell>
        <mxCell id="YrpZZZnXuAw49HL5LtXr-107" value="Caixa de Seleção fica em em vermelho Mensagem Inserir o Endereço em Vermelho" style="whiteSpace=wrap;html=1;rounded=1;" vertex="1" parent="1">
          <mxGeometry x="1370" y="135" width="300" height="30" as="geometry" />
        </mxCell>
        <mxCell id="YrpZZZnXuAw49HL5LtXr-117" value="" style="edgeStyle=orthogonalEdgeStyle;rounded=1;orthogonalLoop=1;jettySize=auto;html=1;" edge="1" parent="1" source="YrpZZZnXuAw49HL5LtXr-108" target="YrpZZZnXuAw49HL5LtXr-116">
          <mxGeometry relative="1" as="geometry" />
        </mxCell>
        <mxCell id="YrpZZZnXuAw49HL5LtXr-108" value="Optimal" style="whiteSpace=wrap;html=1;rounded=1;" vertex="1" parent="1">
          <mxGeometry x="970" y="227" width="120" height="28" as="geometry" />
        </mxCell>
        <mxCell id="YrpZZZnXuAw49HL5LtXr-110" value="Flash" style="whiteSpace=wrap;html=1;rounded=1;" vertex="1" parent="1">
          <mxGeometry x="970" y="267" width="120" height="28" as="geometry" />
        </mxCell>
        <mxCell id="YrpZZZnXuAw49HL5LtXr-111" value="Personal" style="whiteSpace=wrap;html=1;rounded=1;" vertex="1" parent="1">
          <mxGeometry x="970" y="374" width="120" height="28" as="geometry" />
        </mxCell>
        <mxCell id="YrpZZZnXuAw49HL5LtXr-112" value="" style="rounded=1;orthogonalLoop=1;jettySize=auto;html=1;exitX=1;exitY=0.417;exitDx=0;exitDy=0;exitPerimeter=0;entryX=0;entryY=0.5;entryDx=0;entryDy=0;edgeStyle=orthogonalEdgeStyle;" edge="1" parent="1" source="YrpZZZnXuAw49HL5LtXr-85" target="YrpZZZnXuAw49HL5LtXr-110">
          <mxGeometry relative="1" as="geometry">
            <mxPoint x="900" y="287" as="sourcePoint" />
            <mxPoint x="985" y="265" as="targetPoint" />
          </mxGeometry>
        </mxCell>
        <mxCell id="YrpZZZnXuAw49HL5LtXr-113" value="" style="rounded=1;orthogonalLoop=1;jettySize=auto;html=1;exitX=1.01;exitY=0.415;exitDx=0;exitDy=0;entryX=0;entryY=0.25;entryDx=0;entryDy=0;edgeStyle=orthogonalEdgeStyle;exitPerimeter=0;" edge="1" parent="1" source="YrpZZZnXuAw49HL5LtXr-85" target="YrpZZZnXuAw49HL5LtXr-111">
          <mxGeometry relative="1" as="geometry">
            <mxPoint x="900" y="297" as="sourcePoint" />
            <mxPoint x="980" y="291" as="targetPoint" />
          </mxGeometry>
        </mxCell>
        <mxCell id="YrpZZZnXuAw49HL5LtXr-116" value="Seleção Automática" style="whiteSpace=wrap;html=1;rounded=1;" vertex="1" parent="1">
          <mxGeometry x="1170" y="227" width="120" height="28" as="geometry" />
        </mxCell>
        <mxCell id="YrpZZZnXuAw49HL5LtXr-121" value="Seleção Automática" style="whiteSpace=wrap;html=1;rounded=1;" vertex="1" parent="1">
          <mxGeometry x="1170" y="266" width="120" height="28" as="geometry" />
        </mxCell>
        <mxCell id="YrpZZZnXuAw49HL5LtXr-123" value="" style="edgeStyle=orthogonalEdgeStyle;rounded=1;orthogonalLoop=1;jettySize=auto;html=1;exitX=1;exitY=0.5;exitDx=0;exitDy=0;entryX=0;entryY=0.5;entryDx=0;entryDy=0;" edge="1" parent="1" source="YrpZZZnXuAw49HL5LtXr-110" target="YrpZZZnXuAw49HL5LtXr-121">
          <mxGeometry relative="1" as="geometry">
            <mxPoint x="1100" y="251" as="sourcePoint" />
            <mxPoint x="1160" y="330" as="targetPoint" />
          </mxGeometry>
        </mxCell>
        <mxCell id="YrpZZZnXuAw49HL5LtXr-125" value="Seleção Manual" style="whiteSpace=wrap;html=1;rounded=1;" vertex="1" parent="1">
          <mxGeometry x="1170" y="372" width="120" height="28" as="geometry" />
        </mxCell>
        <mxCell id="YrpZZZnXuAw49HL5LtXr-126" value="" style="rounded=1;orthogonalLoop=1;jettySize=auto;html=1;exitX=1;exitY=0.5;exitDx=0;exitDy=0;entryX=0;entryY=0.5;entryDx=0;entryDy=0;" edge="1" parent="1" source="YrpZZZnXuAw49HL5LtXr-111" target="YrpZZZnXuAw49HL5LtXr-125">
          <mxGeometry relative="1" as="geometry">
            <mxPoint x="1100" y="358" as="sourcePoint" />
            <mxPoint x="1140" y="437" as="targetPoint" />
          </mxGeometry>
        </mxCell>
        <mxCell id="YrpZZZnXuAw49HL5LtXr-128" value="Carro" style="whiteSpace=wrap;html=1;rounded=1;" vertex="1" parent="1">
          <mxGeometry x="1370" y="322" width="120" height="28" as="geometry" />
        </mxCell>
        <mxCell id="YrpZZZnXuAw49HL5LtXr-131" value="" style="rounded=1;orthogonalLoop=1;jettySize=auto;html=1;exitX=1;exitY=0.5;exitDx=0;exitDy=0;entryX=0;entryY=0.5;entryDx=0;entryDy=0;edgeStyle=orthogonalEdgeStyle;" edge="1" parent="1" source="YrpZZZnXuAw49HL5LtXr-125" target="YrpZZZnXuAw49HL5LtXr-128">
          <mxGeometry relative="1" as="geometry">
            <mxPoint x="1300" y="307" as="sourcePoint" />
            <mxPoint x="1380" y="307" as="targetPoint" />
          </mxGeometry>
        </mxCell>
        <mxCell id="YrpZZZnXuAw49HL5LtXr-132" value="Share" style="whiteSpace=wrap;html=1;rounded=1;" vertex="1" parent="1">
          <mxGeometry x="1370" y="508" width="120" height="28" as="geometry" />
        </mxCell>
        <mxCell id="YrpZZZnXuAw49HL5LtXr-133" value="A pé" style="whiteSpace=wrap;html=1;rounded=1;" vertex="1" parent="1">
          <mxGeometry x="1370" y="358.5" width="120" height="28" as="geometry" />
        </mxCell>
        <mxCell id="YrpZZZnXuAw49HL5LtXr-134" value="Táxi" style="whiteSpace=wrap;html=1;rounded=1;" vertex="1" parent="1">
          <mxGeometry x="1370" y="397.5" width="120" height="28" as="geometry" />
        </mxCell>
        <mxCell id="YrpZZZnXuAw49HL5LtXr-135" value="Bicicleta" style="whiteSpace=wrap;html=1;rounded=1;" vertex="1" parent="1">
          <mxGeometry x="1370" y="435.5" width="120" height="28" as="geometry" />
        </mxCell>
        <mxCell id="YrpZZZnXuAw49HL5LtXr-136" value="Scooter" style="whiteSpace=wrap;html=1;rounded=1;" vertex="1" parent="1">
          <mxGeometry x="1370" y="473.5" width="120" height="28" as="geometry" />
        </mxCell>
        <mxCell id="YrpZZZnXuAw49HL5LtXr-139" value="" style="endArrow=classic;html=1;rounded=1;exitX=1;exitY=0.5;exitDx=0;exitDy=0;entryX=0;entryY=0.5;entryDx=0;entryDy=0;edgeStyle=orthogonalEdgeStyle;" edge="1" parent="1" source="YrpZZZnXuAw49HL5LtXr-125" target="YrpZZZnXuAw49HL5LtXr-133">
          <mxGeometry width="50" height="50" relative="1" as="geometry">
            <mxPoint x="1280" y="377" as="sourcePoint" />
            <mxPoint x="1330" y="327" as="targetPoint" />
          </mxGeometry>
        </mxCell>
        <mxCell id="YrpZZZnXuAw49HL5LtXr-140" value="" style="endArrow=classic;html=1;rounded=1;exitX=1;exitY=0.5;exitDx=0;exitDy=0;entryX=0;entryY=0.5;entryDx=0;entryDy=0;edgeStyle=orthogonalEdgeStyle;" edge="1" parent="1" source="YrpZZZnXuAw49HL5LtXr-125" target="YrpZZZnXuAw49HL5LtXr-134">
          <mxGeometry width="50" height="50" relative="1" as="geometry">
            <mxPoint x="1300" y="346" as="sourcePoint" />
            <mxPoint x="1380" y="382" as="targetPoint" />
          </mxGeometry>
        </mxCell>
        <mxCell id="YrpZZZnXuAw49HL5LtXr-141" value="" style="endArrow=classic;html=1;rounded=1;exitX=1;exitY=0.5;exitDx=0;exitDy=0;entryX=0;entryY=0.5;entryDx=0;entryDy=0;edgeStyle=orthogonalEdgeStyle;" edge="1" parent="1" source="YrpZZZnXuAw49HL5LtXr-125" target="YrpZZZnXuAw49HL5LtXr-135">
          <mxGeometry width="50" height="50" relative="1" as="geometry">
            <mxPoint x="1300" y="346" as="sourcePoint" />
            <mxPoint x="1380" y="422" as="targetPoint" />
          </mxGeometry>
        </mxCell>
        <mxCell id="YrpZZZnXuAw49HL5LtXr-142" value="" style="endArrow=classic;html=1;rounded=1;exitX=1;exitY=0.5;exitDx=0;exitDy=0;entryX=0;entryY=0.5;entryDx=0;entryDy=0;edgeStyle=orthogonalEdgeStyle;" edge="1" parent="1" source="YrpZZZnXuAw49HL5LtXr-125" target="YrpZZZnXuAw49HL5LtXr-136">
          <mxGeometry width="50" height="50" relative="1" as="geometry">
            <mxPoint x="1300" y="346" as="sourcePoint" />
            <mxPoint x="1380" y="460" as="targetPoint" />
          </mxGeometry>
        </mxCell>
        <mxCell id="YrpZZZnXuAw49HL5LtXr-143" value="" style="endArrow=classic;html=1;rounded=1;exitX=1;exitY=0.5;exitDx=0;exitDy=0;entryX=0;entryY=0.5;entryDx=0;entryDy=0;edgeStyle=orthogonalEdgeStyle;" edge="1" parent="1" source="YrpZZZnXuAw49HL5LtXr-125" target="YrpZZZnXuAw49HL5LtXr-132">
          <mxGeometry width="50" height="50" relative="1" as="geometry">
            <mxPoint x="1300" y="346" as="sourcePoint" />
            <mxPoint x="1380" y="498" as="targetPoint" />
          </mxGeometry>
        </mxCell>
        <mxCell id="YrpZZZnXuAw49HL5LtXr-160" value="" style="rounded=1;orthogonalLoop=1;jettySize=auto;html=1;exitX=1;exitY=0.5;exitDx=0;exitDy=0;edgeStyle=orthogonalEdgeStyle;entryX=0;entryY=0.5;entryDx=0;entryDy=0;" edge="1" parent="1" source="YrpZZZnXuAw49HL5LtXr-146" target="YrpZZZnXuAw49HL5LtXr-159">
          <mxGeometry relative="1" as="geometry" />
        </mxCell>
        <mxCell id="YrpZZZnXuAw49HL5LtXr-167" style="rounded=1;orthogonalLoop=1;jettySize=auto;html=1;exitX=1;exitY=0.5;exitDx=0;exitDy=0;entryX=0;entryY=0.75;entryDx=0;entryDy=0;edgeStyle=orthogonalEdgeStyle;" edge="1" parent="1" source="YrpZZZnXuAw49HL5LtXr-146" target="YrpZZZnXuAw49HL5LtXr-161">
          <mxGeometry relative="1" as="geometry" />
        </mxCell>
        <mxCell id="YrpZZZnXuAw49HL5LtXr-168" style="rounded=1;orthogonalLoop=1;jettySize=auto;html=1;exitX=1;exitY=0.5;exitDx=0;exitDy=0;entryX=0;entryY=0.5;entryDx=0;entryDy=0;edgeStyle=orthogonalEdgeStyle;" edge="1" parent="1" source="YrpZZZnXuAw49HL5LtXr-146" target="YrpZZZnXuAw49HL5LtXr-162">
          <mxGeometry relative="1" as="geometry" />
        </mxCell>
        <mxCell id="YrpZZZnXuAw49HL5LtXr-169" style="rounded=1;orthogonalLoop=1;jettySize=auto;html=1;exitX=1;exitY=0.5;exitDx=0;exitDy=0;entryX=0;entryY=0.5;entryDx=0;entryDy=0;edgeStyle=orthogonalEdgeStyle;" edge="1" parent="1" source="YrpZZZnXuAw49HL5LtXr-146" target="YrpZZZnXuAw49HL5LtXr-163">
          <mxGeometry relative="1" as="geometry" />
        </mxCell>
        <mxCell id="YrpZZZnXuAw49HL5LtXr-170" style="rounded=1;orthogonalLoop=1;jettySize=auto;html=1;exitX=1;exitY=0.5;exitDx=0;exitDy=0;entryX=0;entryY=0.5;entryDx=0;entryDy=0;edgeStyle=orthogonalEdgeStyle;" edge="1" parent="1" source="YrpZZZnXuAw49HL5LtXr-146" target="YrpZZZnXuAw49HL5LtXr-164">
          <mxGeometry relative="1" as="geometry" />
        </mxCell>
        <mxCell id="YrpZZZnXuAw49HL5LtXr-171" style="rounded=1;orthogonalLoop=1;jettySize=auto;html=1;exitX=1;exitY=0.5;exitDx=0;exitDy=0;entryX=0;entryY=0.25;entryDx=0;entryDy=0;edgeStyle=orthogonalEdgeStyle;" edge="1" parent="1" source="YrpZZZnXuAw49HL5LtXr-146" target="YrpZZZnXuAw49HL5LtXr-165">
          <mxGeometry relative="1" as="geometry" />
        </mxCell>
        <mxCell id="YrpZZZnXuAw49HL5LtXr-146" value="Tipo de transporte x Velocidade x Custo" style="whiteSpace=wrap;html=1;rounded=1;" vertex="1" parent="1">
          <mxGeometry x="970" y="611" width="120" height="60" as="geometry" />
        </mxCell>
        <mxCell id="YrpZZZnXuAw49HL5LtXr-202" style="edgeStyle=orthogonalEdgeStyle;rounded=1;orthogonalLoop=1;jettySize=auto;html=1;exitX=1;exitY=0.5;exitDx=0;exitDy=0;entryX=0;entryY=0.5;entryDx=0;entryDy=0;" edge="1" parent="1" source="YrpZZZnXuAw49HL5LtXr-148" target="YrpZZZnXuAw49HL5LtXr-197">
          <mxGeometry relative="1" as="geometry" />
        </mxCell>
        <mxCell id="YrpZZZnXuAw49HL5LtXr-203" style="edgeStyle=orthogonalEdgeStyle;rounded=1;orthogonalLoop=1;jettySize=auto;html=1;exitX=1;exitY=0.5;exitDx=0;exitDy=0;entryX=0;entryY=0.5;entryDx=0;entryDy=0;" edge="1" parent="1" source="YrpZZZnXuAw49HL5LtXr-148" target="YrpZZZnXuAw49HL5LtXr-198">
          <mxGeometry relative="1" as="geometry" />
        </mxCell>
        <mxCell id="YrpZZZnXuAw49HL5LtXr-204" style="edgeStyle=orthogonalEdgeStyle;rounded=1;orthogonalLoop=1;jettySize=auto;html=1;exitX=1;exitY=0.5;exitDx=0;exitDy=0;entryX=0;entryY=0.5;entryDx=0;entryDy=0;" edge="1" parent="1" source="YrpZZZnXuAw49HL5LtXr-148" target="YrpZZZnXuAw49HL5LtXr-199">
          <mxGeometry relative="1" as="geometry" />
        </mxCell>
        <mxCell id="YrpZZZnXuAw49HL5LtXr-205" style="edgeStyle=orthogonalEdgeStyle;rounded=1;orthogonalLoop=1;jettySize=auto;html=1;exitX=1;exitY=0.5;exitDx=0;exitDy=0;entryX=0;entryY=0.5;entryDx=0;entryDy=0;" edge="1" parent="1" source="YrpZZZnXuAw49HL5LtXr-148" target="YrpZZZnXuAw49HL5LtXr-200">
          <mxGeometry relative="1" as="geometry" />
        </mxCell>
        <mxCell id="YrpZZZnXuAw49HL5LtXr-206" style="edgeStyle=orthogonalEdgeStyle;rounded=1;orthogonalLoop=1;jettySize=auto;html=1;exitX=1;exitY=0.5;exitDx=0;exitDy=0;entryX=0;entryY=0.5;entryDx=0;entryDy=0;" edge="1" parent="1" source="YrpZZZnXuAw49HL5LtXr-148" target="YrpZZZnXuAw49HL5LtXr-201">
          <mxGeometry relative="1" as="geometry" />
        </mxCell>
        <mxCell id="YrpZZZnXuAw49HL5LtXr-148" value="Média de Velocidade - Carro (Tempo x Velocidade)" style="whiteSpace=wrap;html=1;rounded=1;" vertex="1" parent="1">
          <mxGeometry x="970" y="874" width="120" height="60" as="geometry" />
        </mxCell>
        <mxCell id="YrpZZZnXuAw49HL5LtXr-150" value="Matriz de distâncias (Km) - Automóveis " style="whiteSpace=wrap;html=1;rounded=1;" vertex="1" parent="1">
          <mxGeometry x="970" y="1322" width="120" height="60" as="geometry" />
        </mxCell>
        <mxCell id="YrpZZZnXuAw49HL5LtXr-152" value="Matriz de distâncias - pedestres, scooters e bicicletas (Km)" style="whiteSpace=wrap;html=1;rounded=1;" vertex="1" parent="1">
          <mxGeometry x="970" y="1503" width="120" height="60" as="geometry" />
        </mxCell>
        <mxCell id="YrpZZZnXuAw49HL5LtXr-154" value="Mapa" style="whiteSpace=wrap;html=1;rounded=1;" vertex="1" parent="1">
          <mxGeometry x="970" y="1760" width="120" height="60" as="geometry" />
        </mxCell>
        <mxCell id="YrpZZZnXuAw49HL5LtXr-173" value="" style="edgeStyle=orthogonalEdgeStyle;rounded=1;orthogonalLoop=1;jettySize=auto;html=1;" edge="1" parent="1" source="YrpZZZnXuAw49HL5LtXr-159" target="YrpZZZnXuAw49HL5LtXr-172">
          <mxGeometry relative="1" as="geometry" />
        </mxCell>
        <mxCell id="YrpZZZnXuAw49HL5LtXr-159" value="A pé" style="whiteSpace=wrap;html=1;rounded=1;" vertex="1" parent="1">
          <mxGeometry x="1170" y="566.5" width="120" height="29" as="geometry" />
        </mxCell>
        <mxCell id="YrpZZZnXuAw49HL5LtXr-192" style="edgeStyle=orthogonalEdgeStyle;rounded=1;orthogonalLoop=1;jettySize=auto;html=1;exitX=1;exitY=0.5;exitDx=0;exitDy=0;entryX=0;entryY=0.5;entryDx=0;entryDy=0;" edge="1" parent="1" source="YrpZZZnXuAw49HL5LtXr-161" target="YrpZZZnXuAw49HL5LtXr-178">
          <mxGeometry relative="1" as="geometry" />
        </mxCell>
        <mxCell id="YrpZZZnXuAw49HL5LtXr-161" value="Compartilhamento de&lt;br/&gt;scooters" style="whiteSpace=wrap;html=1;rounded=1;" vertex="1" parent="1">
          <mxGeometry x="1170" y="611" width="120" height="29" as="geometry" />
        </mxCell>
        <mxCell id="YrpZZZnXuAw49HL5LtXr-193" style="edgeStyle=orthogonalEdgeStyle;rounded=1;orthogonalLoop=1;jettySize=auto;html=1;exitX=1;exitY=0.5;exitDx=0;exitDy=0;entryX=0;entryY=0.5;entryDx=0;entryDy=0;" edge="1" parent="1" source="YrpZZZnXuAw49HL5LtXr-162" target="YrpZZZnXuAw49HL5LtXr-181">
          <mxGeometry relative="1" as="geometry" />
        </mxCell>
        <mxCell id="YrpZZZnXuAw49HL5LtXr-162" value="Compartilhamento de&lt;br/&gt;bicicletas" style="whiteSpace=wrap;html=1;rounded=1;" vertex="1" parent="1">
          <mxGeometry x="1170" y="652" width="120" height="29" as="geometry" />
        </mxCell>
        <mxCell id="YrpZZZnXuAw49HL5LtXr-194" style="edgeStyle=orthogonalEdgeStyle;rounded=1;orthogonalLoop=1;jettySize=auto;html=1;exitX=1;exitY=0.5;exitDx=0;exitDy=0;" edge="1" parent="1" source="YrpZZZnXuAw49HL5LtXr-163" target="YrpZZZnXuAw49HL5LtXr-184">
          <mxGeometry relative="1" as="geometry" />
        </mxCell>
        <mxCell id="YrpZZZnXuAw49HL5LtXr-163" value="Compartilhamento de&lt;br/&gt;carros" style="whiteSpace=wrap;html=1;rounded=1;" vertex="1" parent="1">
          <mxGeometry x="1170" y="692" width="120" height="29" as="geometry" />
        </mxCell>
        <mxCell id="YrpZZZnXuAw49HL5LtXr-195" style="edgeStyle=orthogonalEdgeStyle;rounded=1;orthogonalLoop=1;jettySize=auto;html=1;exitX=1;exitY=0.5;exitDx=0;exitDy=0;entryX=0;entryY=0.5;entryDx=0;entryDy=0;" edge="1" parent="1" source="YrpZZZnXuAw49HL5LtXr-164" target="YrpZZZnXuAw49HL5LtXr-187">
          <mxGeometry relative="1" as="geometry" />
        </mxCell>
        <mxCell id="YrpZZZnXuAw49HL5LtXr-164" value="Táxi" style="whiteSpace=wrap;html=1;rounded=1;" vertex="1" parent="1">
          <mxGeometry x="1170" y="730" width="120" height="29" as="geometry" />
        </mxCell>
        <mxCell id="YrpZZZnXuAw49HL5LtXr-196" style="edgeStyle=orthogonalEdgeStyle;rounded=1;orthogonalLoop=1;jettySize=auto;html=1;exitX=1;exitY=0.5;exitDx=0;exitDy=0;entryX=0;entryY=0.5;entryDx=0;entryDy=0;" edge="1" parent="1" source="YrpZZZnXuAw49HL5LtXr-165" target="YrpZZZnXuAw49HL5LtXr-190">
          <mxGeometry relative="1" as="geometry" />
        </mxCell>
        <mxCell id="YrpZZZnXuAw49HL5LtXr-165" value="Carro Pessoal" style="whiteSpace=wrap;html=1;rounded=1;" vertex="1" parent="1">
          <mxGeometry x="1170" y="770" width="120" height="29" as="geometry" />
        </mxCell>
        <mxCell id="YrpZZZnXuAw49HL5LtXr-175" value="" style="edgeStyle=orthogonalEdgeStyle;rounded=1;orthogonalLoop=1;jettySize=auto;html=1;" edge="1" parent="1" source="YrpZZZnXuAw49HL5LtXr-172" target="YrpZZZnXuAw49HL5LtXr-174">
          <mxGeometry relative="1" as="geometry" />
        </mxCell>
        <mxCell id="YrpZZZnXuAw49HL5LtXr-172" value="A velocidade média é de 4 km/h" style="whiteSpace=wrap;html=1;rounded=1;" vertex="1" parent="1">
          <mxGeometry x="1370" y="566.5" width="190" height="29" as="geometry" />
        </mxCell>
        <mxCell id="YrpZZZnXuAw49HL5LtXr-174" value="$0 / km" style="whiteSpace=wrap;html=1;rounded=1;" vertex="1" parent="1">
          <mxGeometry x="1640" y="566.5" width="80" height="29" as="geometry" />
        </mxCell>
        <mxCell id="YrpZZZnXuAw49HL5LtXr-177" value="" style="edgeStyle=orthogonalEdgeStyle;rounded=1;orthogonalLoop=1;jettySize=auto;html=1;" edge="1" parent="1" source="YrpZZZnXuAw49HL5LtXr-178" target="YrpZZZnXuAw49HL5LtXr-179">
          <mxGeometry relative="1" as="geometry" />
        </mxCell>
        <mxCell id="YrpZZZnXuAw49HL5LtXr-178" value="A velocidade média é de 10 km/h" style="whiteSpace=wrap;html=1;rounded=1;" vertex="1" parent="1">
          <mxGeometry x="1370" y="611" width="190" height="29" as="geometry" />
        </mxCell>
        <mxCell id="YrpZZZnXuAw49HL5LtXr-179" value="$0,8 / km" style="whiteSpace=wrap;html=1;rounded=1;" vertex="1" parent="1">
          <mxGeometry x="1640" y="611" width="80" height="29" as="geometry" />
        </mxCell>
        <mxCell id="YrpZZZnXuAw49HL5LtXr-180" value="" style="edgeStyle=orthogonalEdgeStyle;rounded=1;orthogonalLoop=1;jettySize=auto;html=1;" edge="1" parent="1" source="YrpZZZnXuAw49HL5LtXr-181" target="YrpZZZnXuAw49HL5LtXr-182">
          <mxGeometry relative="1" as="geometry" />
        </mxCell>
        <mxCell id="YrpZZZnXuAw49HL5LtXr-181" value="A velocidade média é de 12 km/h" style="whiteSpace=wrap;html=1;rounded=1;" vertex="1" parent="1">
          <mxGeometry x="1370" y="652" width="190" height="29" as="geometry" />
        </mxCell>
        <mxCell id="YrpZZZnXuAw49HL5LtXr-182" value="$1 / km" style="whiteSpace=wrap;html=1;rounded=1;" vertex="1" parent="1">
          <mxGeometry x="1640" y="652" width="80" height="29" as="geometry" />
        </mxCell>
        <mxCell id="YrpZZZnXuAw49HL5LtXr-183" value="" style="edgeStyle=orthogonalEdgeStyle;rounded=1;orthogonalLoop=1;jettySize=auto;html=1;" edge="1" parent="1" source="YrpZZZnXuAw49HL5LtXr-184" target="YrpZZZnXuAw49HL5LtXr-185">
          <mxGeometry relative="1" as="geometry" />
        </mxCell>
        <mxCell id="YrpZZZnXuAw49HL5LtXr-184" value="consulte a tabela &quot;Velocidade média do carro &quot;" style="whiteSpace=wrap;html=1;rounded=1;" vertex="1" parent="1">
          <mxGeometry x="1370" y="692" width="190" height="29" as="geometry" />
        </mxCell>
        <mxCell id="YrpZZZnXuAw49HL5LtXr-185" value="$0.1 / min" style="whiteSpace=wrap;html=1;rounded=1;" vertex="1" parent="1">
          <mxGeometry x="1640" y="692" width="80" height="29" as="geometry" />
        </mxCell>
        <mxCell id="YrpZZZnXuAw49HL5LtXr-186" value="" style="edgeStyle=orthogonalEdgeStyle;rounded=1;orthogonalLoop=1;jettySize=auto;html=1;" edge="1" parent="1" source="YrpZZZnXuAw49HL5LtXr-187" target="YrpZZZnXuAw49HL5LtXr-188">
          <mxGeometry relative="1" as="geometry" />
        </mxCell>
        <mxCell id="YrpZZZnXuAw49HL5LtXr-187" value="consulte a tabela &quot;Velocidade média do Táxi &quot;" style="whiteSpace=wrap;html=1;rounded=1;" vertex="1" parent="1">
          <mxGeometry x="1370" y="730" width="190" height="29" as="geometry" />
        </mxCell>
        <mxCell id="YrpZZZnXuAw49HL5LtXr-188" value="$0.3 / min" style="whiteSpace=wrap;html=1;rounded=1;" vertex="1" parent="1">
          <mxGeometry x="1640" y="730" width="80" height="30" as="geometry" />
        </mxCell>
        <mxCell id="YrpZZZnXuAw49HL5LtXr-189" value="" style="edgeStyle=orthogonalEdgeStyle;rounded=1;orthogonalLoop=1;jettySize=auto;html=1;" edge="1" parent="1" source="YrpZZZnXuAw49HL5LtXr-190" target="YrpZZZnXuAw49HL5LtXr-191">
          <mxGeometry relative="1" as="geometry" />
        </mxCell>
        <mxCell id="YrpZZZnXuAw49HL5LtXr-190" value="consulte a tabela &quot;Velocidade média do carro &quot;" style="whiteSpace=wrap;html=1;rounded=1;" vertex="1" parent="1">
          <mxGeometry x="1370" y="770" width="190" height="29" as="geometry" />
        </mxCell>
        <mxCell id="YrpZZZnXuAw49HL5LtXr-191" value="$0.5 / min" style="whiteSpace=wrap;html=1;rounded=1;" vertex="1" parent="1">
          <mxGeometry x="1640" y="770" width="80" height="29" as="geometry" />
        </mxCell>
        <mxCell id="YrpZZZnXuAw49HL5LtXr-212" style="edgeStyle=orthogonalEdgeStyle;rounded=1;orthogonalLoop=1;jettySize=auto;html=1;exitX=1;exitY=0.5;exitDx=0;exitDy=0;entryX=0;entryY=0.5;entryDx=0;entryDy=0;" edge="1" parent="1" source="YrpZZZnXuAw49HL5LtXr-197" target="YrpZZZnXuAw49HL5LtXr-207">
          <mxGeometry relative="1" as="geometry" />
        </mxCell>
        <mxCell id="YrpZZZnXuAw49HL5LtXr-197" value="00:01-08:00" style="whiteSpace=wrap;html=1;rounded=1;" vertex="1" parent="1">
          <mxGeometry x="1170" y="839" width="120" height="29" as="geometry" />
        </mxCell>
        <mxCell id="YrpZZZnXuAw49HL5LtXr-213" style="edgeStyle=orthogonalEdgeStyle;rounded=1;orthogonalLoop=1;jettySize=auto;html=1;exitX=1;exitY=0.5;exitDx=0;exitDy=0;entryX=0;entryY=0.5;entryDx=0;entryDy=0;" edge="1" parent="1" source="YrpZZZnXuAw49HL5LtXr-198" target="YrpZZZnXuAw49HL5LtXr-208">
          <mxGeometry relative="1" as="geometry" />
        </mxCell>
        <mxCell id="YrpZZZnXuAw49HL5LtXr-198" value="08:01-12:00" style="whiteSpace=wrap;html=1;rounded=1;" vertex="1" parent="1">
          <mxGeometry x="1170" y="880" width="120" height="29" as="geometry" />
        </mxCell>
        <mxCell id="YrpZZZnXuAw49HL5LtXr-214" style="edgeStyle=orthogonalEdgeStyle;rounded=1;orthogonalLoop=1;jettySize=auto;html=1;exitX=1;exitY=0.5;exitDx=0;exitDy=0;entryX=0;entryY=0.5;entryDx=0;entryDy=0;" edge="1" parent="1" source="YrpZZZnXuAw49HL5LtXr-199" target="YrpZZZnXuAw49HL5LtXr-209">
          <mxGeometry relative="1" as="geometry" />
        </mxCell>
        <mxCell id="YrpZZZnXuAw49HL5LtXr-199" value="12:01-18:00" style="whiteSpace=wrap;html=1;rounded=1;" vertex="1" parent="1">
          <mxGeometry x="1170" y="919" width="120" height="29" as="geometry" />
        </mxCell>
        <mxCell id="YrpZZZnXuAw49HL5LtXr-215" style="edgeStyle=orthogonalEdgeStyle;rounded=1;orthogonalLoop=1;jettySize=auto;html=1;exitX=1;exitY=0.5;exitDx=0;exitDy=0;entryX=0;entryY=0.5;entryDx=0;entryDy=0;" edge="1" parent="1" source="YrpZZZnXuAw49HL5LtXr-200" target="YrpZZZnXuAw49HL5LtXr-210">
          <mxGeometry relative="1" as="geometry" />
        </mxCell>
        <mxCell id="YrpZZZnXuAw49HL5LtXr-200" value="18:01-22:00" style="whiteSpace=wrap;html=1;rounded=1;" vertex="1" parent="1">
          <mxGeometry x="1170" y="959" width="120" height="29" as="geometry" />
        </mxCell>
        <mxCell id="YrpZZZnXuAw49HL5LtXr-216" style="edgeStyle=orthogonalEdgeStyle;rounded=1;orthogonalLoop=1;jettySize=auto;html=1;exitX=1;exitY=0.5;exitDx=0;exitDy=0;entryX=0;entryY=0.5;entryDx=0;entryDy=0;" edge="1" parent="1" source="YrpZZZnXuAw49HL5LtXr-201" target="YrpZZZnXuAw49HL5LtXr-211">
          <mxGeometry relative="1" as="geometry" />
        </mxCell>
        <mxCell id="YrpZZZnXuAw49HL5LtXr-201" value="22:01-00:00 " style="whiteSpace=wrap;html=1;rounded=1;" vertex="1" parent="1">
          <mxGeometry x="1170" y="1000" width="120" height="29" as="geometry" />
        </mxCell>
        <mxCell id="YrpZZZnXuAw49HL5LtXr-207" value="45 km/h" style="whiteSpace=wrap;html=1;rounded=1;" vertex="1" parent="1">
          <mxGeometry x="1370" y="838.5" width="120" height="29" as="geometry" />
        </mxCell>
        <mxCell id="YrpZZZnXuAw49HL5LtXr-208" value="30 km/h" style="whiteSpace=wrap;html=1;rounded=1;" vertex="1" parent="1">
          <mxGeometry x="1370" y="879.5" width="120" height="29" as="geometry" />
        </mxCell>
        <mxCell id="YrpZZZnXuAw49HL5LtXr-209" value="40 km/h" style="whiteSpace=wrap;html=1;rounded=1;" vertex="1" parent="1">
          <mxGeometry x="1370" y="918.5" width="120" height="29" as="geometry" />
        </mxCell>
        <mxCell id="YrpZZZnXuAw49HL5LtXr-210" value="25 km/h" style="whiteSpace=wrap;html=1;rounded=1;" vertex="1" parent="1">
          <mxGeometry x="1370" y="958.5" width="120" height="29" as="geometry" />
        </mxCell>
        <mxCell id="YrpZZZnXuAw49HL5LtXr-211" value="45 km/h" style="whiteSpace=wrap;html=1;rounded=1;" vertex="1" parent="1">
          <mxGeometry x="1370" y="999.5" width="120" height="29" as="geometry" />
        </mxCell>
        <mxCell id="YrpZZZnXuAw49HL5LtXr-217" style="edgeStyle=orthogonalEdgeStyle;rounded=1;orthogonalLoop=1;jettySize=auto;html=1;exitX=1;exitY=0.5;exitDx=0;exitDy=0;entryX=0;entryY=0.5;entryDx=0;entryDy=0;" edge="1" parent="1" source="YrpZZZnXuAw49HL5LtXr-222" target="YrpZZZnXuAw49HL5LtXr-224">
          <mxGeometry relative="1" as="geometry" />
        </mxCell>
        <mxCell id="YrpZZZnXuAw49HL5LtXr-218" style="edgeStyle=orthogonalEdgeStyle;rounded=1;orthogonalLoop=1;jettySize=auto;html=1;exitX=1;exitY=0.5;exitDx=0;exitDy=0;entryX=0;entryY=0.5;entryDx=0;entryDy=0;" edge="1" parent="1" source="YrpZZZnXuAw49HL5LtXr-222" target="YrpZZZnXuAw49HL5LtXr-226">
          <mxGeometry relative="1" as="geometry" />
        </mxCell>
        <mxCell id="YrpZZZnXuAw49HL5LtXr-219" style="edgeStyle=orthogonalEdgeStyle;rounded=1;orthogonalLoop=1;jettySize=auto;html=1;exitX=1;exitY=0.5;exitDx=0;exitDy=0;entryX=0;entryY=0.5;entryDx=0;entryDy=0;" edge="1" parent="1" source="YrpZZZnXuAw49HL5LtXr-222" target="YrpZZZnXuAw49HL5LtXr-228">
          <mxGeometry relative="1" as="geometry" />
        </mxCell>
        <mxCell id="YrpZZZnXuAw49HL5LtXr-220" style="edgeStyle=orthogonalEdgeStyle;rounded=1;orthogonalLoop=1;jettySize=auto;html=1;exitX=1;exitY=0.5;exitDx=0;exitDy=0;entryX=0;entryY=0.5;entryDx=0;entryDy=0;" edge="1" parent="1" source="YrpZZZnXuAw49HL5LtXr-222" target="YrpZZZnXuAw49HL5LtXr-230">
          <mxGeometry relative="1" as="geometry" />
        </mxCell>
        <mxCell id="YrpZZZnXuAw49HL5LtXr-221" style="edgeStyle=orthogonalEdgeStyle;rounded=1;orthogonalLoop=1;jettySize=auto;html=1;exitX=1;exitY=0.5;exitDx=0;exitDy=0;entryX=0;entryY=0.5;entryDx=0;entryDy=0;" edge="1" parent="1" source="YrpZZZnXuAw49HL5LtXr-222" target="YrpZZZnXuAw49HL5LtXr-232">
          <mxGeometry relative="1" as="geometry" />
        </mxCell>
        <mxCell id="YrpZZZnXuAw49HL5LtXr-222" value="Média de Velocidade - Táxi (Tempo x Velocidade)" style="whiteSpace=wrap;html=1;rounded=1;" vertex="1" parent="1">
          <mxGeometry x="970" y="1095.5" width="120" height="60" as="geometry" />
        </mxCell>
        <mxCell id="YrpZZZnXuAw49HL5LtXr-223" style="edgeStyle=orthogonalEdgeStyle;rounded=1;orthogonalLoop=1;jettySize=auto;html=1;exitX=1;exitY=0.5;exitDx=0;exitDy=0;entryX=0;entryY=0.5;entryDx=0;entryDy=0;" edge="1" parent="1" source="YrpZZZnXuAw49HL5LtXr-224" target="YrpZZZnXuAw49HL5LtXr-233">
          <mxGeometry relative="1" as="geometry" />
        </mxCell>
        <mxCell id="YrpZZZnXuAw49HL5LtXr-224" value="00:01-08:00" style="whiteSpace=wrap;html=1;rounded=1;" vertex="1" parent="1">
          <mxGeometry x="1170" y="1060.5" width="120" height="29" as="geometry" />
        </mxCell>
        <mxCell id="YrpZZZnXuAw49HL5LtXr-225" style="edgeStyle=orthogonalEdgeStyle;rounded=1;orthogonalLoop=1;jettySize=auto;html=1;exitX=1;exitY=0.5;exitDx=0;exitDy=0;entryX=0;entryY=0.5;entryDx=0;entryDy=0;" edge="1" parent="1" source="YrpZZZnXuAw49HL5LtXr-226" target="YrpZZZnXuAw49HL5LtXr-234">
          <mxGeometry relative="1" as="geometry" />
        </mxCell>
        <mxCell id="YrpZZZnXuAw49HL5LtXr-226" value="08:01-12:00" style="whiteSpace=wrap;html=1;rounded=1;" vertex="1" parent="1">
          <mxGeometry x="1170" y="1101.5" width="120" height="29" as="geometry" />
        </mxCell>
        <mxCell id="YrpZZZnXuAw49HL5LtXr-227" style="edgeStyle=orthogonalEdgeStyle;rounded=1;orthogonalLoop=1;jettySize=auto;html=1;exitX=1;exitY=0.5;exitDx=0;exitDy=0;entryX=0;entryY=0.5;entryDx=0;entryDy=0;" edge="1" parent="1" source="YrpZZZnXuAw49HL5LtXr-228" target="YrpZZZnXuAw49HL5LtXr-235">
          <mxGeometry relative="1" as="geometry" />
        </mxCell>
        <mxCell id="YrpZZZnXuAw49HL5LtXr-228" value="12:01-18:00" style="whiteSpace=wrap;html=1;rounded=1;" vertex="1" parent="1">
          <mxGeometry x="1170" y="1140.5" width="120" height="29" as="geometry" />
        </mxCell>
        <mxCell id="YrpZZZnXuAw49HL5LtXr-229" style="edgeStyle=orthogonalEdgeStyle;rounded=1;orthogonalLoop=1;jettySize=auto;html=1;exitX=1;exitY=0.5;exitDx=0;exitDy=0;entryX=0;entryY=0.5;entryDx=0;entryDy=0;" edge="1" parent="1" source="YrpZZZnXuAw49HL5LtXr-230" target="YrpZZZnXuAw49HL5LtXr-236">
          <mxGeometry relative="1" as="geometry" />
        </mxCell>
        <mxCell id="YrpZZZnXuAw49HL5LtXr-230" value="18:01-22:00" style="whiteSpace=wrap;html=1;rounded=1;" vertex="1" parent="1">
          <mxGeometry x="1170" y="1180.5" width="120" height="29" as="geometry" />
        </mxCell>
        <mxCell id="YrpZZZnXuAw49HL5LtXr-231" style="edgeStyle=orthogonalEdgeStyle;rounded=1;orthogonalLoop=1;jettySize=auto;html=1;exitX=1;exitY=0.5;exitDx=0;exitDy=0;entryX=0;entryY=0.5;entryDx=0;entryDy=0;" edge="1" parent="1" source="YrpZZZnXuAw49HL5LtXr-232" target="YrpZZZnXuAw49HL5LtXr-237">
          <mxGeometry relative="1" as="geometry" />
        </mxCell>
        <mxCell id="YrpZZZnXuAw49HL5LtXr-232" value="22:01-00:00 " style="whiteSpace=wrap;html=1;rounded=1;" vertex="1" parent="1">
          <mxGeometry x="1170" y="1221.5" width="120" height="29" as="geometry" />
        </mxCell>
        <mxCell id="YrpZZZnXuAw49HL5LtXr-233" value="50 km/h" style="whiteSpace=wrap;html=1;rounded=1;" vertex="1" parent="1">
          <mxGeometry x="1370" y="1060" width="120" height="29" as="geometry" />
        </mxCell>
        <mxCell id="YrpZZZnXuAw49HL5LtXr-234" value="35 km/h" style="whiteSpace=wrap;html=1;rounded=1;" vertex="1" parent="1">
          <mxGeometry x="1370" y="1101" width="120" height="29" as="geometry" />
        </mxCell>
        <mxCell id="YrpZZZnXuAw49HL5LtXr-235" value="42 km/h" style="whiteSpace=wrap;html=1;rounded=1;" vertex="1" parent="1">
          <mxGeometry x="1370" y="1140" width="120" height="29" as="geometry" />
        </mxCell>
        <mxCell id="YrpZZZnXuAw49HL5LtXr-236" value="30 km/h" style="whiteSpace=wrap;html=1;rounded=1;" vertex="1" parent="1">
          <mxGeometry x="1370" y="1180" width="120" height="29" as="geometry" />
        </mxCell>
        <mxCell id="YrpZZZnXuAw49HL5LtXr-237" value="50 km/h" style="whiteSpace=wrap;html=1;rounded=1;" vertex="1" parent="1">
          <mxGeometry x="1370" y="1221" width="120" height="29" as="geometry" />
        </mxCell>
        <mxCell id="YrpZZZnXuAw49HL5LtXr-238" value="" style="rounded=1;orthogonalLoop=1;jettySize=auto;html=1;edgeStyle=orthogonalEdgeStyle;" edge="1" parent="1" source="YrpZZZnXuAw49HL5LtXr-239" target="YrpZZZnXuAw49HL5LtXr-240">
          <mxGeometry relative="1" as="geometry" />
        </mxCell>
        <mxCell id="YrpZZZnXuAw49HL5LtXr-239" value="Visualização" style="whiteSpace=wrap;html=1;rounded=1;" vertex="1" parent="1">
          <mxGeometry x="1160" y="1720" width="120" height="30" as="geometry" />
        </mxCell>
        <mxCell id="YrpZZZnXuAw49HL5LtXr-240" value="Mapa" style="whiteSpace=wrap;html=1;rounded=1;" vertex="1" parent="1">
          <mxGeometry x="1370" y="1710" width="120" height="30" as="geometry" />
        </mxCell>
        <mxCell id="YrpZZZnXuAw49HL5LtXr-241" value="Satélite" style="whiteSpace=wrap;html=1;rounded=1;" vertex="1" parent="1">
          <mxGeometry x="1370" y="1750" width="120" height="30" as="geometry" />
        </mxCell>
        <mxCell id="YrpZZZnXuAw49HL5LtXr-242" value="Street View" style="whiteSpace=wrap;html=1;rounded=1;" vertex="1" parent="1">
          <mxGeometry x="1370" y="1790" width="120" height="30" as="geometry" />
        </mxCell>
        <mxCell id="YrpZZZnXuAw49HL5LtXr-243" value="" style="endArrow=classic;html=1;rounded=1;exitX=1;exitY=0.5;exitDx=0;exitDy=0;entryX=0;entryY=0.5;entryDx=0;entryDy=0;edgeStyle=orthogonalEdgeStyle;" edge="1" parent="1" source="YrpZZZnXuAw49HL5LtXr-239" target="YrpZZZnXuAw49HL5LtXr-241">
          <mxGeometry width="50" height="50" relative="1" as="geometry">
            <mxPoint x="1154" y="1805" as="sourcePoint" />
            <mxPoint x="1324" y="1740" as="targetPoint" />
          </mxGeometry>
        </mxCell>
        <mxCell id="YrpZZZnXuAw49HL5LtXr-244" value="" style="endArrow=classic;html=1;rounded=1;exitX=1;exitY=0.5;exitDx=0;exitDy=0;entryX=0;entryY=0.5;entryDx=0;entryDy=0;" edge="1" parent="1" source="YrpZZZnXuAw49HL5LtXr-154" target="YrpZZZnXuAw49HL5LtXr-239">
          <mxGeometry width="50" height="50" relative="1" as="geometry">
            <mxPoint x="1380" y="1867" as="sourcePoint" />
            <mxPoint x="1330" y="1917" as="targetPoint" />
          </mxGeometry>
        </mxCell>
        <mxCell id="YrpZZZnXuAw49HL5LtXr-245" value="" style="rounded=1;orthogonalLoop=1;jettySize=auto;html=1;edgeStyle=orthogonalEdgeStyle;fillColor=#fa6800;strokeColor=#C73500;" edge="1" parent="1" source="YrpZZZnXuAw49HL5LtXr-246" target="YrpZZZnXuAw49HL5LtXr-247">
          <mxGeometry relative="1" as="geometry" />
        </mxCell>
        <mxCell id="YrpZZZnXuAw49HL5LtXr-246" value="Escala" style="whiteSpace=wrap;html=1;rounded=1;fillColor=#fa6800;fontColor=#000000;strokeColor=#C73500;" vertex="1" parent="1">
          <mxGeometry x="1160" y="1875" width="120" height="30" as="geometry" />
        </mxCell>
        <mxCell id="YrpZZZnXuAw49HL5LtXr-247" value="Botão&amp;nbsp; +" style="whiteSpace=wrap;html=1;rounded=1;fillColor=#fa6800;fontColor=#000000;strokeColor=#C73500;" vertex="1" parent="1">
          <mxGeometry x="1370" y="1875" width="120" height="30" as="geometry" />
        </mxCell>
        <mxCell id="YrpZZZnXuAw49HL5LtXr-248" value="Botão -" style="whiteSpace=wrap;html=1;rounded=1;fillColor=#fa6800;fontColor=#000000;strokeColor=#C73500;" vertex="1" parent="1">
          <mxGeometry x="1370" y="1915" width="120" height="30" as="geometry" />
        </mxCell>
        <mxCell id="YrpZZZnXuAw49HL5LtXr-249" value="" style="endArrow=classic;html=1;rounded=1;entryX=0;entryY=0.5;entryDx=0;entryDy=0;edgeStyle=orthogonalEdgeStyle;fillColor=#fa6800;strokeColor=#C73500;" edge="1" parent="1" target="YrpZZZnXuAw49HL5LtXr-248">
          <mxGeometry width="50" height="50" relative="1" as="geometry">
            <mxPoint x="1280" y="1890" as="sourcePoint" />
            <mxPoint x="1194" y="1655" as="targetPoint" />
          </mxGeometry>
        </mxCell>
        <mxCell id="YrpZZZnXuAw49HL5LtXr-251" value="" style="endArrow=classic;html=1;rounded=1;exitX=1;exitY=0.5;exitDx=0;exitDy=0;entryX=0;entryY=0.5;entryDx=0;entryDy=0;" edge="1" parent="1" source="YrpZZZnXuAw49HL5LtXr-154" target="YrpZZZnXuAw49HL5LtXr-246">
          <mxGeometry width="50" height="50" relative="1" as="geometry">
            <mxPoint x="1390" y="2032" as="sourcePoint" />
            <mxPoint x="1440" y="1982" as="targetPoint" />
          </mxGeometry>
        </mxCell>
        <mxCell id="YrpZZZnXuAw49HL5LtXr-252" value="Rota Traçada" style="whiteSpace=wrap;html=1;rounded=1;" vertex="1" parent="1">
          <mxGeometry x="1370" y="1830" width="120" height="30" as="geometry" />
        </mxCell>
        <mxCell id="YrpZZZnXuAw49HL5LtXr-274" value="Assets" style="childLayout=tableLayout;recursiveResize=0;shadow=1;imageAlign=center;fontSize=10;rounded=1;" vertex="1" parent="1">
          <mxGeometry x="1180" y="1280" width="880" height="144" as="geometry" />
        </mxCell>
        <mxCell id="YrpZZZnXuAw49HL5LtXr-275" style="shape=tableRow;horizontal=0;startSize=0;swimlaneHead=0;swimlaneBody=0;top=0;left=0;bottom=0;right=0;dropTarget=0;collapsible=0;recursiveResize=0;expand=0;fontStyle=0;fontSize=10;rounded=1;" vertex="1" parent="YrpZZZnXuAw49HL5LtXr-274">
          <mxGeometry width="880" height="18" as="geometry" />
        </mxCell>
        <mxCell id="YrpZZZnXuAw49HL5LtXr-276" value="Endereço" style="connectable=0;recursiveResize=0;align=center;fontStyle=1;html=1;fontSize=10;rounded=1;" vertex="1" parent="YrpZZZnXuAw49HL5LtXr-275">
          <mxGeometry width="110" height="18" as="geometry">
            <mxRectangle width="110" height="18" as="alternateBounds" />
          </mxGeometry>
        </mxCell>
        <mxCell id="YrpZZZnXuAw49HL5LtXr-277" value="East 2nd Street,&amp;nbsp;&lt;span style=&quot;font-weight: 400; font-size: 10px;&quot;&gt;601&lt;/span&gt;" style="connectable=0;recursiveResize=0;align=center;fontStyle=1;html=1;fontSize=10;rounded=1;" vertex="1" parent="YrpZZZnXuAw49HL5LtXr-275">
          <mxGeometry x="110" width="110" height="18" as="geometry">
            <mxRectangle width="110" height="18" as="alternateBounds" />
          </mxGeometry>
        </mxCell>
        <mxCell id="YrpZZZnXuAw49HL5LtXr-278" value="1300 1st St" style="connectable=0;recursiveResize=0;align=center;fontStyle=1;html=1;fontSize=10;rounded=1;" vertex="1" parent="YrpZZZnXuAw49HL5LtXr-275">
          <mxGeometry x="220" width="110" height="18" as="geometry">
            <mxRectangle width="110" height="18" as="alternateBounds" />
          </mxGeometry>
        </mxCell>
        <mxCell id="YrpZZZnXuAw49HL5LtXr-456" value="4201 Whittier&amp;nbsp;&lt;span style=&quot;font-weight: 400; font-size: 10px;&quot;&gt;Blvd&lt;/span&gt;" style="connectable=0;recursiveResize=0;align=center;fontStyle=1;html=1;fontSize=10;rounded=1;" vertex="1" parent="YrpZZZnXuAw49HL5LtXr-275">
          <mxGeometry x="330" width="110" height="18" as="geometry">
            <mxRectangle width="110" height="18" as="alternateBounds" />
          </mxGeometry>
        </mxCell>
        <mxCell id="YrpZZZnXuAw49HL5LtXr-464" value="1717 E 7th St" style="connectable=0;recursiveResize=0;align=center;fontStyle=1;html=1;fontSize=10;rounded=1;" vertex="1" parent="YrpZZZnXuAw49HL5LtXr-275">
          <mxGeometry x="440" width="110" height="18" as="geometry">
            <mxRectangle width="110" height="18" as="alternateBounds" />
          </mxGeometry>
        </mxCell>
        <mxCell id="YrpZZZnXuAw49HL5LtXr-472" value="1917 Bay St" style="connectable=0;recursiveResize=0;align=center;fontStyle=1;html=1;fontSize=10;rounded=1;" vertex="1" parent="YrpZZZnXuAw49HL5LtXr-275">
          <mxGeometry x="550" width="110" height="18" as="geometry">
            <mxRectangle width="110" height="18" as="alternateBounds" />
          </mxGeometry>
        </mxCell>
        <mxCell id="YrpZZZnXuAw49HL5LtXr-480" value="1811 E 20th St" style="connectable=0;recursiveResize=0;align=center;fontStyle=1;html=1;fontSize=10;rounded=1;" vertex="1" parent="YrpZZZnXuAw49HL5LtXr-275">
          <mxGeometry x="660" width="110" height="18" as="geometry">
            <mxRectangle width="110" height="18" as="alternateBounds" />
          </mxGeometry>
        </mxCell>
        <mxCell id="YrpZZZnXuAw49HL5LtXr-488" value="615 S Broadway" style="connectable=0;recursiveResize=0;align=center;fontStyle=1;html=1;fontSize=10;rounded=1;" vertex="1" parent="YrpZZZnXuAw49HL5LtXr-275">
          <mxGeometry x="770" width="110" height="18" as="geometry">
            <mxRectangle width="110" height="18" as="alternateBounds" />
          </mxGeometry>
        </mxCell>
        <mxCell id="YrpZZZnXuAw49HL5LtXr-279" value="" style="shape=tableRow;horizontal=0;startSize=0;swimlaneHead=0;swimlaneBody=0;top=0;left=0;bottom=0;right=0;dropTarget=0;collapsible=0;recursiveResize=0;expand=0;fontStyle=0;fontSize=10;rounded=1;" vertex="1" parent="YrpZZZnXuAw49HL5LtXr-274">
          <mxGeometry y="18" width="880" height="18" as="geometry" />
        </mxCell>
        <mxCell id="YrpZZZnXuAw49HL5LtXr-280" value="East 2nd Street, 601" style="connectable=0;recursiveResize=0;align=center;whiteSpace=wrap;html=1;fontStyle=1;fontSize=10;rounded=1;" vertex="1" parent="YrpZZZnXuAw49HL5LtXr-279">
          <mxGeometry width="110" height="18" as="geometry">
            <mxRectangle width="110" height="18" as="alternateBounds" />
          </mxGeometry>
        </mxCell>
        <mxCell id="YrpZZZnXuAw49HL5LtXr-281" value="0" style="connectable=0;recursiveResize=0;align=center;whiteSpace=wrap;html=1;fontColor=#808080;fontSize=10;rounded=1;" vertex="1" parent="YrpZZZnXuAw49HL5LtXr-279">
          <mxGeometry x="110" width="110" height="18" as="geometry">
            <mxRectangle width="110" height="18" as="alternateBounds" />
          </mxGeometry>
        </mxCell>
        <mxCell id="YrpZZZnXuAw49HL5LtXr-282" value="1,4&lt;br style=&quot;font-size: 10px;&quot;&gt;" style="connectable=0;recursiveResize=0;align=center;whiteSpace=wrap;html=1;fontColor=#808080;fontSize=10;rounded=1;" vertex="1" parent="YrpZZZnXuAw49HL5LtXr-279">
          <mxGeometry x="220" width="110" height="18" as="geometry">
            <mxRectangle width="110" height="18" as="alternateBounds" />
          </mxGeometry>
        </mxCell>
        <mxCell id="YrpZZZnXuAw49HL5LtXr-457" value="1,5" style="connectable=0;recursiveResize=0;align=center;whiteSpace=wrap;html=1;fontColor=#808080;fontSize=10;rounded=1;" vertex="1" parent="YrpZZZnXuAw49HL5LtXr-279">
          <mxGeometry x="330" width="110" height="18" as="geometry">
            <mxRectangle width="110" height="18" as="alternateBounds" />
          </mxGeometry>
        </mxCell>
        <mxCell id="YrpZZZnXuAw49HL5LtXr-465" value="0,89" style="connectable=0;recursiveResize=0;align=center;whiteSpace=wrap;html=1;fontColor=#808080;fontSize=10;rounded=1;" vertex="1" parent="YrpZZZnXuAw49HL5LtXr-279">
          <mxGeometry x="440" width="110" height="18" as="geometry">
            <mxRectangle width="110" height="18" as="alternateBounds" />
          </mxGeometry>
        </mxCell>
        <mxCell id="YrpZZZnXuAw49HL5LtXr-473" value="2,6" style="connectable=0;recursiveResize=0;align=center;whiteSpace=wrap;html=1;fontColor=#808080;fontSize=10;rounded=1;" vertex="1" parent="YrpZZZnXuAw49HL5LtXr-279">
          <mxGeometry x="550" width="110" height="18" as="geometry">
            <mxRectangle width="110" height="18" as="alternateBounds" />
          </mxGeometry>
        </mxCell>
        <mxCell id="YrpZZZnXuAw49HL5LtXr-481" value="2,6" style="connectable=0;recursiveResize=0;align=center;whiteSpace=wrap;html=1;fontColor=#808080;fontSize=10;rounded=1;" vertex="1" parent="YrpZZZnXuAw49HL5LtXr-279">
          <mxGeometry x="660" width="110" height="18" as="geometry">
            <mxRectangle width="110" height="18" as="alternateBounds" />
          </mxGeometry>
        </mxCell>
        <mxCell id="YrpZZZnXuAw49HL5LtXr-489" value="2,6" style="connectable=0;recursiveResize=0;align=center;whiteSpace=wrap;html=1;fontColor=#808080;fontSize=10;rounded=1;" vertex="1" parent="YrpZZZnXuAw49HL5LtXr-279">
          <mxGeometry x="770" width="110" height="18" as="geometry">
            <mxRectangle width="110" height="18" as="alternateBounds" />
          </mxGeometry>
        </mxCell>
        <mxCell id="YrpZZZnXuAw49HL5LtXr-283" value="" style="shape=tableRow;horizontal=0;startSize=0;swimlaneHead=0;swimlaneBody=0;top=0;left=0;bottom=0;right=0;dropTarget=0;collapsible=0;recursiveResize=0;expand=0;fontStyle=1;fontSize=10;rounded=1;" vertex="1" parent="YrpZZZnXuAw49HL5LtXr-274">
          <mxGeometry y="36" width="880" height="18" as="geometry" />
        </mxCell>
        <mxCell id="YrpZZZnXuAw49HL5LtXr-284" value="1300 1st St" style="connectable=0;recursiveResize=0;whiteSpace=wrap;html=1;fontStyle=1;fontSize=10;rounded=1;" vertex="1" parent="YrpZZZnXuAw49HL5LtXr-283">
          <mxGeometry width="110" height="18" as="geometry">
            <mxRectangle width="110" height="18" as="alternateBounds" />
          </mxGeometry>
        </mxCell>
        <mxCell id="YrpZZZnXuAw49HL5LtXr-285" value="1,4" style="connectable=0;recursiveResize=0;whiteSpace=wrap;html=1;fontColor=#808080;fontSize=10;rounded=1;" vertex="1" parent="YrpZZZnXuAw49HL5LtXr-283">
          <mxGeometry x="110" width="110" height="18" as="geometry">
            <mxRectangle width="110" height="18" as="alternateBounds" />
          </mxGeometry>
        </mxCell>
        <mxCell id="YrpZZZnXuAw49HL5LtXr-286" value="0" style="connectable=0;recursiveResize=0;whiteSpace=wrap;html=1;fontColor=#808080;fontSize=10;rounded=1;" vertex="1" parent="YrpZZZnXuAw49HL5LtXr-283">
          <mxGeometry x="220" width="110" height="18" as="geometry">
            <mxRectangle width="110" height="18" as="alternateBounds" />
          </mxGeometry>
        </mxCell>
        <mxCell id="YrpZZZnXuAw49HL5LtXr-458" value="2,9" style="connectable=0;recursiveResize=0;whiteSpace=wrap;html=1;fontColor=#808080;fontSize=10;rounded=1;" vertex="1" parent="YrpZZZnXuAw49HL5LtXr-283">
          <mxGeometry x="330" width="110" height="18" as="geometry">
            <mxRectangle width="110" height="18" as="alternateBounds" />
          </mxGeometry>
        </mxCell>
        <mxCell id="YrpZZZnXuAw49HL5LtXr-466" value="2,3" style="connectable=0;recursiveResize=0;whiteSpace=wrap;html=1;fontColor=#808080;fontSize=10;rounded=1;" vertex="1" parent="YrpZZZnXuAw49HL5LtXr-283">
          <mxGeometry x="440" width="110" height="18" as="geometry">
            <mxRectangle width="110" height="18" as="alternateBounds" />
          </mxGeometry>
        </mxCell>
        <mxCell id="YrpZZZnXuAw49HL5LtXr-474" value="2,3" style="connectable=0;recursiveResize=0;whiteSpace=wrap;html=1;fontColor=#808080;fontSize=10;rounded=1;" vertex="1" parent="YrpZZZnXuAw49HL5LtXr-283">
          <mxGeometry x="550" width="110" height="18" as="geometry">
            <mxRectangle width="110" height="18" as="alternateBounds" />
          </mxGeometry>
        </mxCell>
        <mxCell id="YrpZZZnXuAw49HL5LtXr-482" value="2,3" style="connectable=0;recursiveResize=0;whiteSpace=wrap;html=1;fontColor=#808080;fontSize=10;rounded=1;" vertex="1" parent="YrpZZZnXuAw49HL5LtXr-283">
          <mxGeometry x="660" width="110" height="18" as="geometry">
            <mxRectangle width="110" height="18" as="alternateBounds" />
          </mxGeometry>
        </mxCell>
        <mxCell id="YrpZZZnXuAw49HL5LtXr-490" value="2,3" style="connectable=0;recursiveResize=0;whiteSpace=wrap;html=1;fontColor=#808080;fontSize=10;rounded=1;" vertex="1" parent="YrpZZZnXuAw49HL5LtXr-283">
          <mxGeometry x="770" width="110" height="18" as="geometry">
            <mxRectangle width="110" height="18" as="alternateBounds" />
          </mxGeometry>
        </mxCell>
        <mxCell id="YrpZZZnXuAw49HL5LtXr-287" value="" style="shape=tableRow;horizontal=0;startSize=0;swimlaneHead=0;swimlaneBody=0;top=0;left=0;bottom=0;right=0;dropTarget=0;collapsible=0;recursiveResize=0;expand=0;fontStyle=0;fontSize=10;rounded=1;" vertex="1" parent="YrpZZZnXuAw49HL5LtXr-274">
          <mxGeometry y="54" width="880" height="18" as="geometry" />
        </mxCell>
        <mxCell id="YrpZZZnXuAw49HL5LtXr-288" value="4201 Whittier Blvd " style="connectable=0;recursiveResize=0;fontStyle=1;align=center;whiteSpace=wrap;html=1;fontSize=10;rounded=1;" vertex="1" parent="YrpZZZnXuAw49HL5LtXr-287">
          <mxGeometry width="110" height="18" as="geometry">
            <mxRectangle width="110" height="18" as="alternateBounds" />
          </mxGeometry>
        </mxCell>
        <mxCell id="YrpZZZnXuAw49HL5LtXr-289" value="1,4" style="connectable=0;recursiveResize=0;fontStyle=0;align=center;whiteSpace=wrap;html=1;fontColor=#808080;fontSize=10;rounded=1;" vertex="1" parent="YrpZZZnXuAw49HL5LtXr-287">
          <mxGeometry x="110" width="110" height="18" as="geometry">
            <mxRectangle width="110" height="18" as="alternateBounds" />
          </mxGeometry>
        </mxCell>
        <mxCell id="YrpZZZnXuAw49HL5LtXr-290" value="1,5" style="connectable=0;recursiveResize=0;fontStyle=0;align=center;whiteSpace=wrap;html=1;fontColor=#808080;fontSize=10;rounded=1;" vertex="1" parent="YrpZZZnXuAw49HL5LtXr-287">
          <mxGeometry x="220" width="110" height="18" as="geometry">
            <mxRectangle width="110" height="18" as="alternateBounds" />
          </mxGeometry>
        </mxCell>
        <mxCell id="YrpZZZnXuAw49HL5LtXr-459" value="0" style="connectable=0;recursiveResize=0;fontStyle=0;align=center;whiteSpace=wrap;html=1;fontColor=#808080;fontSize=10;rounded=1;" vertex="1" parent="YrpZZZnXuAw49HL5LtXr-287">
          <mxGeometry x="330" width="110" height="18" as="geometry">
            <mxRectangle width="110" height="18" as="alternateBounds" />
          </mxGeometry>
        </mxCell>
        <mxCell id="YrpZZZnXuAw49HL5LtXr-467" value="1,9" style="connectable=0;recursiveResize=0;fontStyle=0;align=center;whiteSpace=wrap;html=1;fontColor=#808080;fontSize=10;rounded=1;" vertex="1" parent="YrpZZZnXuAw49HL5LtXr-287">
          <mxGeometry x="440" width="110" height="18" as="geometry">
            <mxRectangle width="110" height="18" as="alternateBounds" />
          </mxGeometry>
        </mxCell>
        <mxCell id="YrpZZZnXuAw49HL5LtXr-475" value="3,8" style="connectable=0;recursiveResize=0;fontStyle=0;align=center;whiteSpace=wrap;html=1;fontColor=#808080;fontSize=10;rounded=1;" vertex="1" parent="YrpZZZnXuAw49HL5LtXr-287">
          <mxGeometry x="550" width="110" height="18" as="geometry">
            <mxRectangle width="110" height="18" as="alternateBounds" />
          </mxGeometry>
        </mxCell>
        <mxCell id="YrpZZZnXuAw49HL5LtXr-483" value="3" style="connectable=0;recursiveResize=0;fontStyle=0;align=center;whiteSpace=wrap;html=1;fontColor=#808080;fontSize=10;rounded=1;" vertex="1" parent="YrpZZZnXuAw49HL5LtXr-287">
          <mxGeometry x="660" width="110" height="18" as="geometry">
            <mxRectangle width="110" height="18" as="alternateBounds" />
          </mxGeometry>
        </mxCell>
        <mxCell id="YrpZZZnXuAw49HL5LtXr-491" value="3,3" style="connectable=0;recursiveResize=0;fontStyle=0;align=center;whiteSpace=wrap;html=1;fontColor=#808080;fontSize=10;rounded=1;" vertex="1" parent="YrpZZZnXuAw49HL5LtXr-287">
          <mxGeometry x="770" width="110" height="18" as="geometry">
            <mxRectangle width="110" height="18" as="alternateBounds" />
          </mxGeometry>
        </mxCell>
        <mxCell id="YrpZZZnXuAw49HL5LtXr-291" value="" style="shape=tableRow;horizontal=0;startSize=0;swimlaneHead=0;swimlaneBody=0;top=0;left=0;bottom=0;right=0;dropTarget=0;collapsible=0;recursiveResize=0;expand=0;fontStyle=1;fontSize=10;rounded=1;" vertex="1" parent="YrpZZZnXuAw49HL5LtXr-274">
          <mxGeometry y="72" width="880" height="18" as="geometry" />
        </mxCell>
        <mxCell id="YrpZZZnXuAw49HL5LtXr-292" value="1717 E 7th St" style="connectable=0;recursiveResize=0;whiteSpace=wrap;html=1;fontStyle=1;fontSize=10;rounded=1;" vertex="1" parent="YrpZZZnXuAw49HL5LtXr-291">
          <mxGeometry width="110" height="18" as="geometry">
            <mxRectangle width="110" height="18" as="alternateBounds" />
          </mxGeometry>
        </mxCell>
        <mxCell id="YrpZZZnXuAw49HL5LtXr-293" value="1,5" style="connectable=0;recursiveResize=0;whiteSpace=wrap;html=1;fontColor=#808080;fontSize=10;rounded=1;" vertex="1" parent="YrpZZZnXuAw49HL5LtXr-291">
          <mxGeometry x="110" width="110" height="18" as="geometry">
            <mxRectangle width="110" height="18" as="alternateBounds" />
          </mxGeometry>
        </mxCell>
        <mxCell id="YrpZZZnXuAw49HL5LtXr-294" value="3" style="connectable=0;recursiveResize=0;whiteSpace=wrap;html=1;fontColor=#808080;fontSize=10;rounded=1;" vertex="1" parent="YrpZZZnXuAw49HL5LtXr-291">
          <mxGeometry x="220" width="110" height="18" as="geometry">
            <mxRectangle width="110" height="18" as="alternateBounds" />
          </mxGeometry>
        </mxCell>
        <mxCell id="YrpZZZnXuAw49HL5LtXr-460" value="2,4" style="connectable=0;recursiveResize=0;whiteSpace=wrap;html=1;fontColor=#808080;fontSize=10;rounded=1;" vertex="1" parent="YrpZZZnXuAw49HL5LtXr-291">
          <mxGeometry x="330" width="110" height="18" as="geometry">
            <mxRectangle width="110" height="18" as="alternateBounds" />
          </mxGeometry>
        </mxCell>
        <mxCell id="YrpZZZnXuAw49HL5LtXr-468" value="0" style="connectable=0;recursiveResize=0;whiteSpace=wrap;html=1;fontColor=#808080;fontSize=10;rounded=1;" vertex="1" parent="YrpZZZnXuAw49HL5LtXr-291">
          <mxGeometry x="440" width="110" height="18" as="geometry">
            <mxRectangle width="110" height="18" as="alternateBounds" />
          </mxGeometry>
        </mxCell>
        <mxCell id="YrpZZZnXuAw49HL5LtXr-476" value="1,2" style="connectable=0;recursiveResize=0;whiteSpace=wrap;html=1;fontColor=#808080;fontSize=10;rounded=1;" vertex="1" parent="YrpZZZnXuAw49HL5LtXr-291">
          <mxGeometry x="550" width="110" height="18" as="geometry">
            <mxRectangle width="110" height="18" as="alternateBounds" />
          </mxGeometry>
        </mxCell>
        <mxCell id="YrpZZZnXuAw49HL5LtXr-484" value="3,4" style="connectable=0;recursiveResize=0;whiteSpace=wrap;html=1;fontColor=#808080;fontSize=10;rounded=1;" vertex="1" parent="YrpZZZnXuAw49HL5LtXr-291">
          <mxGeometry x="660" width="110" height="18" as="geometry">
            <mxRectangle width="110" height="18" as="alternateBounds" />
          </mxGeometry>
        </mxCell>
        <mxCell id="YrpZZZnXuAw49HL5LtXr-492" value="2,3" style="connectable=0;recursiveResize=0;whiteSpace=wrap;html=1;fontColor=#808080;fontSize=10;rounded=1;" vertex="1" parent="YrpZZZnXuAw49HL5LtXr-291">
          <mxGeometry x="770" width="110" height="18" as="geometry">
            <mxRectangle width="110" height="18" as="alternateBounds" />
          </mxGeometry>
        </mxCell>
        <mxCell id="YrpZZZnXuAw49HL5LtXr-295" value="" style="shape=tableRow;horizontal=0;startSize=0;swimlaneHead=0;swimlaneBody=0;top=0;left=0;bottom=0;right=0;dropTarget=0;collapsible=0;recursiveResize=0;expand=0;fontStyle=1;fontSize=10;rounded=1;" vertex="1" parent="YrpZZZnXuAw49HL5LtXr-274">
          <mxGeometry y="90" width="880" height="18" as="geometry" />
        </mxCell>
        <mxCell id="YrpZZZnXuAw49HL5LtXr-296" value="1917 Bay St" style="connectable=0;recursiveResize=0;whiteSpace=wrap;html=1;fontStyle=1;fontSize=10;rounded=1;" vertex="1" parent="YrpZZZnXuAw49HL5LtXr-295">
          <mxGeometry width="110" height="18" as="geometry">
            <mxRectangle width="110" height="18" as="alternateBounds" />
          </mxGeometry>
        </mxCell>
        <mxCell id="YrpZZZnXuAw49HL5LtXr-297" value="1,5" style="connectable=0;recursiveResize=0;whiteSpace=wrap;html=1;fontColor=#808080;fontSize=10;rounded=1;" vertex="1" parent="YrpZZZnXuAw49HL5LtXr-295">
          <mxGeometry x="110" width="110" height="18" as="geometry">
            <mxRectangle width="110" height="18" as="alternateBounds" />
          </mxGeometry>
        </mxCell>
        <mxCell id="YrpZZZnXuAw49HL5LtXr-298" value="3,7" style="connectable=0;recursiveResize=0;whiteSpace=wrap;html=1;fontColor=#808080;fontSize=10;rounded=1;" vertex="1" parent="YrpZZZnXuAw49HL5LtXr-295">
          <mxGeometry x="220" width="110" height="18" as="geometry">
            <mxRectangle width="110" height="18" as="alternateBounds" />
          </mxGeometry>
        </mxCell>
        <mxCell id="YrpZZZnXuAw49HL5LtXr-461" value="3,7" style="connectable=0;recursiveResize=0;whiteSpace=wrap;html=1;fontColor=#808080;fontSize=10;rounded=1;" vertex="1" parent="YrpZZZnXuAw49HL5LtXr-295">
          <mxGeometry x="330" width="110" height="18" as="geometry">
            <mxRectangle width="110" height="18" as="alternateBounds" />
          </mxGeometry>
        </mxCell>
        <mxCell id="YrpZZZnXuAw49HL5LtXr-469" value="1,2" style="connectable=0;recursiveResize=0;whiteSpace=wrap;html=1;fontColor=#808080;fontSize=10;rounded=1;" vertex="1" parent="YrpZZZnXuAw49HL5LtXr-295">
          <mxGeometry x="440" width="110" height="18" as="geometry">
            <mxRectangle width="110" height="18" as="alternateBounds" />
          </mxGeometry>
        </mxCell>
        <mxCell id="YrpZZZnXuAw49HL5LtXr-477" value="0" style="connectable=0;recursiveResize=0;whiteSpace=wrap;html=1;fontColor=#808080;fontSize=10;rounded=1;" vertex="1" parent="YrpZZZnXuAw49HL5LtXr-295">
          <mxGeometry x="550" width="110" height="18" as="geometry">
            <mxRectangle width="110" height="18" as="alternateBounds" />
          </mxGeometry>
        </mxCell>
        <mxCell id="YrpZZZnXuAw49HL5LtXr-485" value="1,7" style="connectable=0;recursiveResize=0;whiteSpace=wrap;html=1;fontColor=#808080;fontSize=10;rounded=1;" vertex="1" parent="YrpZZZnXuAw49HL5LtXr-295">
          <mxGeometry x="660" width="110" height="18" as="geometry">
            <mxRectangle width="110" height="18" as="alternateBounds" />
          </mxGeometry>
        </mxCell>
        <mxCell id="YrpZZZnXuAw49HL5LtXr-493" value="1,7" style="connectable=0;recursiveResize=0;whiteSpace=wrap;html=1;fontColor=#808080;fontSize=10;rounded=1;" vertex="1" parent="YrpZZZnXuAw49HL5LtXr-295">
          <mxGeometry x="770" width="110" height="18" as="geometry">
            <mxRectangle width="110" height="18" as="alternateBounds" />
          </mxGeometry>
        </mxCell>
        <mxCell id="YrpZZZnXuAw49HL5LtXr-299" value="" style="shape=tableRow;horizontal=0;startSize=0;swimlaneHead=0;swimlaneBody=0;top=0;left=0;bottom=0;right=0;dropTarget=0;collapsible=0;recursiveResize=0;expand=0;fontStyle=1;fontSize=10;rounded=1;" vertex="1" parent="YrpZZZnXuAw49HL5LtXr-274">
          <mxGeometry y="108" width="880" height="18" as="geometry" />
        </mxCell>
        <mxCell id="YrpZZZnXuAw49HL5LtXr-300" value="1811 E 20th St" style="connectable=0;recursiveResize=0;whiteSpace=wrap;html=1;fontStyle=1;fontSize=10;rounded=1;" vertex="1" parent="YrpZZZnXuAw49HL5LtXr-299">
          <mxGeometry width="110" height="18" as="geometry">
            <mxRectangle width="110" height="18" as="alternateBounds" />
          </mxGeometry>
        </mxCell>
        <mxCell id="YrpZZZnXuAw49HL5LtXr-301" value="3,2" style="connectable=0;recursiveResize=0;whiteSpace=wrap;html=1;fontColor=#808080;fontSize=10;rounded=1;" vertex="1" parent="YrpZZZnXuAw49HL5LtXr-299">
          <mxGeometry x="110" width="110" height="18" as="geometry">
            <mxRectangle width="110" height="18" as="alternateBounds" />
          </mxGeometry>
        </mxCell>
        <mxCell id="YrpZZZnXuAw49HL5LtXr-302" value="3,9" style="connectable=0;recursiveResize=0;whiteSpace=wrap;html=1;fontColor=#808080;fontSize=10;rounded=1;" vertex="1" parent="YrpZZZnXuAw49HL5LtXr-299">
          <mxGeometry x="220" width="110" height="18" as="geometry">
            <mxRectangle width="110" height="18" as="alternateBounds" />
          </mxGeometry>
        </mxCell>
        <mxCell id="YrpZZZnXuAw49HL5LtXr-462" value="4,7" style="connectable=0;recursiveResize=0;whiteSpace=wrap;html=1;fontColor=#808080;fontSize=10;rounded=1;" vertex="1" parent="YrpZZZnXuAw49HL5LtXr-299">
          <mxGeometry x="330" width="110" height="18" as="geometry">
            <mxRectangle width="110" height="18" as="alternateBounds" />
          </mxGeometry>
        </mxCell>
        <mxCell id="YrpZZZnXuAw49HL5LtXr-470" value="2,7" style="connectable=0;recursiveResize=0;whiteSpace=wrap;html=1;fontColor=#808080;fontSize=10;rounded=1;" vertex="1" parent="YrpZZZnXuAw49HL5LtXr-299">
          <mxGeometry x="440" width="110" height="18" as="geometry">
            <mxRectangle width="110" height="18" as="alternateBounds" />
          </mxGeometry>
        </mxCell>
        <mxCell id="YrpZZZnXuAw49HL5LtXr-478" value="1,7" style="connectable=0;recursiveResize=0;whiteSpace=wrap;html=1;fontColor=#808080;fontSize=10;rounded=1;" vertex="1" parent="YrpZZZnXuAw49HL5LtXr-299">
          <mxGeometry x="550" width="110" height="18" as="geometry">
            <mxRectangle width="110" height="18" as="alternateBounds" />
          </mxGeometry>
        </mxCell>
        <mxCell id="YrpZZZnXuAw49HL5LtXr-486" value="0" style="connectable=0;recursiveResize=0;whiteSpace=wrap;html=1;fontColor=#808080;fontSize=10;rounded=1;" vertex="1" parent="YrpZZZnXuAw49HL5LtXr-299">
          <mxGeometry x="660" width="110" height="18" as="geometry">
            <mxRectangle width="110" height="18" as="alternateBounds" />
          </mxGeometry>
        </mxCell>
        <mxCell id="YrpZZZnXuAw49HL5LtXr-494" value="2,2" style="connectable=0;recursiveResize=0;whiteSpace=wrap;html=1;fontColor=#808080;fontSize=10;rounded=1;" vertex="1" parent="YrpZZZnXuAw49HL5LtXr-299">
          <mxGeometry x="770" width="110" height="18" as="geometry">
            <mxRectangle width="110" height="18" as="alternateBounds" />
          </mxGeometry>
        </mxCell>
        <mxCell id="YrpZZZnXuAw49HL5LtXr-333" value="" style="shape=tableRow;horizontal=0;startSize=0;swimlaneHead=0;swimlaneBody=0;top=0;left=0;bottom=0;right=0;dropTarget=0;collapsible=0;recursiveResize=0;expand=0;fontStyle=1;fontSize=10;rounded=1;" vertex="1" parent="YrpZZZnXuAw49HL5LtXr-274">
          <mxGeometry y="126" width="880" height="18" as="geometry" />
        </mxCell>
        <mxCell id="YrpZZZnXuAw49HL5LtXr-334" value="615 S Broadway" style="connectable=0;recursiveResize=0;whiteSpace=wrap;html=1;fontStyle=1;fontSize=10;rounded=1;" vertex="1" parent="YrpZZZnXuAw49HL5LtXr-333">
          <mxGeometry width="110" height="18" as="geometry">
            <mxRectangle width="110" height="18" as="alternateBounds" />
          </mxGeometry>
        </mxCell>
        <mxCell id="YrpZZZnXuAw49HL5LtXr-335" value="1,4" style="connectable=0;recursiveResize=0;whiteSpace=wrap;html=1;fontColor=#808080;fontSize=10;rounded=1;" vertex="1" parent="YrpZZZnXuAw49HL5LtXr-333">
          <mxGeometry x="110" width="110" height="18" as="geometry">
            <mxRectangle width="110" height="18" as="alternateBounds" />
          </mxGeometry>
        </mxCell>
        <mxCell id="YrpZZZnXuAw49HL5LtXr-336" value="2,4" style="connectable=0;recursiveResize=0;whiteSpace=wrap;html=1;fontColor=#808080;fontSize=10;rounded=1;" vertex="1" parent="YrpZZZnXuAw49HL5LtXr-333">
          <mxGeometry x="220" width="110" height="18" as="geometry">
            <mxRectangle width="110" height="18" as="alternateBounds" />
          </mxGeometry>
        </mxCell>
        <mxCell id="YrpZZZnXuAw49HL5LtXr-463" value="3,5" style="connectable=0;recursiveResize=0;whiteSpace=wrap;html=1;fontColor=#808080;fontSize=10;rounded=1;" vertex="1" parent="YrpZZZnXuAw49HL5LtXr-333">
          <mxGeometry x="330" width="110" height="18" as="geometry">
            <mxRectangle width="110" height="18" as="alternateBounds" />
          </mxGeometry>
        </mxCell>
        <mxCell id="YrpZZZnXuAw49HL5LtXr-471" value="2,3" style="connectable=0;recursiveResize=0;whiteSpace=wrap;html=1;fontColor=#808080;fontSize=10;rounded=1;" vertex="1" parent="YrpZZZnXuAw49HL5LtXr-333">
          <mxGeometry x="440" width="110" height="18" as="geometry">
            <mxRectangle width="110" height="18" as="alternateBounds" />
          </mxGeometry>
        </mxCell>
        <mxCell id="YrpZZZnXuAw49HL5LtXr-479" value="1,4" style="connectable=0;recursiveResize=0;whiteSpace=wrap;html=1;fontColor=#808080;fontSize=10;rounded=1;" vertex="1" parent="YrpZZZnXuAw49HL5LtXr-333">
          <mxGeometry x="550" width="110" height="18" as="geometry">
            <mxRectangle width="110" height="18" as="alternateBounds" />
          </mxGeometry>
        </mxCell>
        <mxCell id="YrpZZZnXuAw49HL5LtXr-487" value="1,3" style="connectable=0;recursiveResize=0;whiteSpace=wrap;html=1;fontColor=#808080;fontSize=10;rounded=1;" vertex="1" parent="YrpZZZnXuAw49HL5LtXr-333">
          <mxGeometry x="660" width="110" height="18" as="geometry">
            <mxRectangle width="110" height="18" as="alternateBounds" />
          </mxGeometry>
        </mxCell>
        <mxCell id="YrpZZZnXuAw49HL5LtXr-495" value="0" style="connectable=0;recursiveResize=0;whiteSpace=wrap;html=1;fontColor=#808080;fontSize=10;rounded=1;" vertex="1" parent="YrpZZZnXuAw49HL5LtXr-333">
          <mxGeometry x="770" width="110" height="18" as="geometry">
            <mxRectangle width="110" height="18" as="alternateBounds" />
          </mxGeometry>
        </mxCell>
        <mxCell id="YrpZZZnXuAw49HL5LtXr-496" value="Assets" style="childLayout=tableLayout;recursiveResize=0;shadow=1;imageAlign=center;fontSize=10;rounded=1;" vertex="1" parent="1">
          <mxGeometry x="1181" y="1461" width="880" height="144" as="geometry" />
        </mxCell>
        <mxCell id="YrpZZZnXuAw49HL5LtXr-497" style="shape=tableRow;horizontal=0;startSize=0;swimlaneHead=0;swimlaneBody=0;top=0;left=0;bottom=0;right=0;dropTarget=0;collapsible=0;recursiveResize=0;expand=0;fontStyle=0;fontSize=10;rounded=1;" vertex="1" parent="YrpZZZnXuAw49HL5LtXr-496">
          <mxGeometry width="880" height="18" as="geometry" />
        </mxCell>
        <mxCell id="YrpZZZnXuAw49HL5LtXr-498" value="Endereço" style="connectable=0;recursiveResize=0;align=center;fontStyle=1;html=1;fontSize=10;rounded=1;" vertex="1" parent="YrpZZZnXuAw49HL5LtXr-497">
          <mxGeometry width="110" height="18" as="geometry">
            <mxRectangle width="110" height="18" as="alternateBounds" />
          </mxGeometry>
        </mxCell>
        <mxCell id="YrpZZZnXuAw49HL5LtXr-499" value="East 2nd Street,&amp;nbsp;&lt;span style=&quot;font-weight: 400; font-size: 10px;&quot;&gt;601&lt;/span&gt;" style="connectable=0;recursiveResize=0;align=center;fontStyle=1;html=1;fontSize=10;rounded=1;" vertex="1" parent="YrpZZZnXuAw49HL5LtXr-497">
          <mxGeometry x="110" width="110" height="18" as="geometry">
            <mxRectangle width="110" height="18" as="alternateBounds" />
          </mxGeometry>
        </mxCell>
        <mxCell id="YrpZZZnXuAw49HL5LtXr-500" value="1300 1st St" style="connectable=0;recursiveResize=0;align=center;fontStyle=1;html=1;fontSize=10;rounded=1;" vertex="1" parent="YrpZZZnXuAw49HL5LtXr-497">
          <mxGeometry x="220" width="110" height="18" as="geometry">
            <mxRectangle width="110" height="18" as="alternateBounds" />
          </mxGeometry>
        </mxCell>
        <mxCell id="YrpZZZnXuAw49HL5LtXr-501" value="4201 Whittier&amp;nbsp;&lt;span style=&quot;font-weight: 400; font-size: 10px;&quot;&gt;Blvd&lt;/span&gt;" style="connectable=0;recursiveResize=0;align=center;fontStyle=1;html=1;fontSize=10;rounded=1;" vertex="1" parent="YrpZZZnXuAw49HL5LtXr-497">
          <mxGeometry x="330" width="110" height="18" as="geometry">
            <mxRectangle width="110" height="18" as="alternateBounds" />
          </mxGeometry>
        </mxCell>
        <mxCell id="YrpZZZnXuAw49HL5LtXr-502" value="1717 E 7th St" style="connectable=0;recursiveResize=0;align=center;fontStyle=1;html=1;fontSize=10;rounded=1;" vertex="1" parent="YrpZZZnXuAw49HL5LtXr-497">
          <mxGeometry x="440" width="110" height="18" as="geometry">
            <mxRectangle width="110" height="18" as="alternateBounds" />
          </mxGeometry>
        </mxCell>
        <mxCell id="YrpZZZnXuAw49HL5LtXr-503" value="1917 Bay St" style="connectable=0;recursiveResize=0;align=center;fontStyle=1;html=1;fontSize=10;rounded=1;" vertex="1" parent="YrpZZZnXuAw49HL5LtXr-497">
          <mxGeometry x="550" width="110" height="18" as="geometry">
            <mxRectangle width="110" height="18" as="alternateBounds" />
          </mxGeometry>
        </mxCell>
        <mxCell id="YrpZZZnXuAw49HL5LtXr-504" value="1811 E 20th St" style="connectable=0;recursiveResize=0;align=center;fontStyle=1;html=1;fontSize=10;rounded=1;" vertex="1" parent="YrpZZZnXuAw49HL5LtXr-497">
          <mxGeometry x="660" width="110" height="18" as="geometry">
            <mxRectangle width="110" height="18" as="alternateBounds" />
          </mxGeometry>
        </mxCell>
        <mxCell id="YrpZZZnXuAw49HL5LtXr-505" value="615 S Broadway" style="connectable=0;recursiveResize=0;align=center;fontStyle=1;html=1;fontSize=10;rounded=1;" vertex="1" parent="YrpZZZnXuAw49HL5LtXr-497">
          <mxGeometry x="770" width="110" height="18" as="geometry">
            <mxRectangle width="110" height="18" as="alternateBounds" />
          </mxGeometry>
        </mxCell>
        <mxCell id="YrpZZZnXuAw49HL5LtXr-506" value="" style="shape=tableRow;horizontal=0;startSize=0;swimlaneHead=0;swimlaneBody=0;top=0;left=0;bottom=0;right=0;dropTarget=0;collapsible=0;recursiveResize=0;expand=0;fontStyle=0;fontSize=10;rounded=1;" vertex="1" parent="YrpZZZnXuAw49HL5LtXr-496">
          <mxGeometry y="18" width="880" height="18" as="geometry" />
        </mxCell>
        <mxCell id="YrpZZZnXuAw49HL5LtXr-507" value="East 2nd Street, 601" style="connectable=0;recursiveResize=0;align=center;whiteSpace=wrap;html=1;fontStyle=1;fontSize=10;rounded=1;" vertex="1" parent="YrpZZZnXuAw49HL5LtXr-506">
          <mxGeometry width="110" height="18" as="geometry">
            <mxRectangle width="110" height="18" as="alternateBounds" />
          </mxGeometry>
        </mxCell>
        <mxCell id="YrpZZZnXuAw49HL5LtXr-508" value="0" style="connectable=0;recursiveResize=0;align=center;whiteSpace=wrap;html=1;fontColor=#808080;fontSize=10;rounded=1;" vertex="1" parent="YrpZZZnXuAw49HL5LtXr-506">
          <mxGeometry x="110" width="110" height="18" as="geometry">
            <mxRectangle width="110" height="18" as="alternateBounds" />
          </mxGeometry>
        </mxCell>
        <mxCell id="YrpZZZnXuAw49HL5LtXr-509" value="0,96" style="connectable=0;recursiveResize=0;align=center;whiteSpace=wrap;html=1;fontColor=#808080;fontSize=10;rounded=1;" vertex="1" parent="YrpZZZnXuAw49HL5LtXr-506">
          <mxGeometry x="220" width="110" height="18" as="geometry">
            <mxRectangle width="110" height="18" as="alternateBounds" />
          </mxGeometry>
        </mxCell>
        <mxCell id="YrpZZZnXuAw49HL5LtXr-510" value="1,4" style="connectable=0;recursiveResize=0;align=center;whiteSpace=wrap;html=1;fontColor=#808080;fontSize=10;rounded=1;" vertex="1" parent="YrpZZZnXuAw49HL5LtXr-506">
          <mxGeometry x="330" width="110" height="18" as="geometry">
            <mxRectangle width="110" height="18" as="alternateBounds" />
          </mxGeometry>
        </mxCell>
        <mxCell id="YrpZZZnXuAw49HL5LtXr-511" value="0,91" style="connectable=0;recursiveResize=0;align=center;whiteSpace=wrap;html=1;fontColor=#808080;fontSize=10;rounded=1;" vertex="1" parent="YrpZZZnXuAw49HL5LtXr-506">
          <mxGeometry x="440" width="110" height="18" as="geometry">
            <mxRectangle width="110" height="18" as="alternateBounds" />
          </mxGeometry>
        </mxCell>
        <mxCell id="YrpZZZnXuAw49HL5LtXr-512" value="1,4" style="connectable=0;recursiveResize=0;align=center;whiteSpace=wrap;html=1;fontColor=#808080;fontSize=10;rounded=1;" vertex="1" parent="YrpZZZnXuAw49HL5LtXr-506">
          <mxGeometry x="550" width="110" height="18" as="geometry">
            <mxRectangle width="110" height="18" as="alternateBounds" />
          </mxGeometry>
        </mxCell>
        <mxCell id="YrpZZZnXuAw49HL5LtXr-513" value="1,7" style="connectable=0;recursiveResize=0;align=center;whiteSpace=wrap;html=1;fontColor=#808080;fontSize=10;rounded=1;" vertex="1" parent="YrpZZZnXuAw49HL5LtXr-506">
          <mxGeometry x="660" width="110" height="18" as="geometry">
            <mxRectangle width="110" height="18" as="alternateBounds" />
          </mxGeometry>
        </mxCell>
        <mxCell id="YrpZZZnXuAw49HL5LtXr-514" value="1,1" style="connectable=0;recursiveResize=0;align=center;whiteSpace=wrap;html=1;fontColor=#808080;fontSize=10;rounded=1;" vertex="1" parent="YrpZZZnXuAw49HL5LtXr-506">
          <mxGeometry x="770" width="110" height="18" as="geometry">
            <mxRectangle width="110" height="18" as="alternateBounds" />
          </mxGeometry>
        </mxCell>
        <mxCell id="YrpZZZnXuAw49HL5LtXr-515" value="" style="shape=tableRow;horizontal=0;startSize=0;swimlaneHead=0;swimlaneBody=0;top=0;left=0;bottom=0;right=0;dropTarget=0;collapsible=0;recursiveResize=0;expand=0;fontStyle=1;fontSize=10;rounded=1;" vertex="1" parent="YrpZZZnXuAw49HL5LtXr-496">
          <mxGeometry y="36" width="880" height="18" as="geometry" />
        </mxCell>
        <mxCell id="YrpZZZnXuAw49HL5LtXr-516" value="1300 1st St" style="connectable=0;recursiveResize=0;whiteSpace=wrap;html=1;fontStyle=1;fontSize=10;rounded=1;" vertex="1" parent="YrpZZZnXuAw49HL5LtXr-515">
          <mxGeometry width="110" height="18" as="geometry">
            <mxRectangle width="110" height="18" as="alternateBounds" />
          </mxGeometry>
        </mxCell>
        <mxCell id="YrpZZZnXuAw49HL5LtXr-517" value="0,96" style="connectable=0;recursiveResize=0;whiteSpace=wrap;html=1;fontColor=#808080;fontSize=10;rounded=1;" vertex="1" parent="YrpZZZnXuAw49HL5LtXr-515">
          <mxGeometry x="110" width="110" height="18" as="geometry">
            <mxRectangle width="110" height="18" as="alternateBounds" />
          </mxGeometry>
        </mxCell>
        <mxCell id="YrpZZZnXuAw49HL5LtXr-518" value="0" style="connectable=0;recursiveResize=0;whiteSpace=wrap;html=1;fontColor=#808080;fontSize=10;rounded=1;" vertex="1" parent="YrpZZZnXuAw49HL5LtXr-515">
          <mxGeometry x="220" width="110" height="18" as="geometry">
            <mxRectangle width="110" height="18" as="alternateBounds" />
          </mxGeometry>
        </mxCell>
        <mxCell id="YrpZZZnXuAw49HL5LtXr-519" value="1,3" style="connectable=0;recursiveResize=0;whiteSpace=wrap;html=1;fontColor=#808080;fontSize=10;rounded=1;" vertex="1" parent="YrpZZZnXuAw49HL5LtXr-515">
          <mxGeometry x="330" width="110" height="18" as="geometry">
            <mxRectangle width="110" height="18" as="alternateBounds" />
          </mxGeometry>
        </mxCell>
        <mxCell id="YrpZZZnXuAw49HL5LtXr-520" value="1,9" style="connectable=0;recursiveResize=0;whiteSpace=wrap;html=1;fontColor=#808080;fontSize=10;rounded=1;" vertex="1" parent="YrpZZZnXuAw49HL5LtXr-515">
          <mxGeometry x="440" width="110" height="18" as="geometry">
            <mxRectangle width="110" height="18" as="alternateBounds" />
          </mxGeometry>
        </mxCell>
        <mxCell id="YrpZZZnXuAw49HL5LtXr-521" value="2" style="connectable=0;recursiveResize=0;whiteSpace=wrap;html=1;fontColor=#808080;fontSize=10;rounded=1;" vertex="1" parent="YrpZZZnXuAw49HL5LtXr-515">
          <mxGeometry x="550" width="110" height="18" as="geometry">
            <mxRectangle width="110" height="18" as="alternateBounds" />
          </mxGeometry>
        </mxCell>
        <mxCell id="YrpZZZnXuAw49HL5LtXr-522" value="1,7" style="connectable=0;recursiveResize=0;whiteSpace=wrap;html=1;fontColor=#808080;fontSize=10;rounded=1;" vertex="1" parent="YrpZZZnXuAw49HL5LtXr-515">
          <mxGeometry x="660" width="110" height="18" as="geometry">
            <mxRectangle width="110" height="18" as="alternateBounds" />
          </mxGeometry>
        </mxCell>
        <mxCell id="YrpZZZnXuAw49HL5LtXr-523" value="1,2" style="connectable=0;recursiveResize=0;whiteSpace=wrap;html=1;fontColor=#808080;fontSize=10;rounded=1;" vertex="1" parent="YrpZZZnXuAw49HL5LtXr-515">
          <mxGeometry x="770" width="110" height="18" as="geometry">
            <mxRectangle width="110" height="18" as="alternateBounds" />
          </mxGeometry>
        </mxCell>
        <mxCell id="YrpZZZnXuAw49HL5LtXr-524" value="" style="shape=tableRow;horizontal=0;startSize=0;swimlaneHead=0;swimlaneBody=0;top=0;left=0;bottom=0;right=0;dropTarget=0;collapsible=0;recursiveResize=0;expand=0;fontStyle=0;fontSize=10;rounded=1;" vertex="1" parent="YrpZZZnXuAw49HL5LtXr-496">
          <mxGeometry y="54" width="880" height="18" as="geometry" />
        </mxCell>
        <mxCell id="YrpZZZnXuAw49HL5LtXr-525" value="4201 Whittier Blvd " style="connectable=0;recursiveResize=0;fontStyle=1;align=center;whiteSpace=wrap;html=1;fontSize=10;rounded=1;" vertex="1" parent="YrpZZZnXuAw49HL5LtXr-524">
          <mxGeometry width="110" height="18" as="geometry">
            <mxRectangle width="110" height="18" as="alternateBounds" />
          </mxGeometry>
        </mxCell>
        <mxCell id="YrpZZZnXuAw49HL5LtXr-526" value="1,2" style="connectable=0;recursiveResize=0;fontStyle=0;align=center;whiteSpace=wrap;html=1;fontColor=#808080;fontSize=10;rounded=1;" vertex="1" parent="YrpZZZnXuAw49HL5LtXr-524">
          <mxGeometry x="110" width="110" height="18" as="geometry">
            <mxRectangle width="110" height="18" as="alternateBounds" />
          </mxGeometry>
        </mxCell>
        <mxCell id="YrpZZZnXuAw49HL5LtXr-527" value="1,3" style="connectable=0;recursiveResize=0;fontStyle=0;align=center;whiteSpace=wrap;html=1;fontColor=#808080;fontSize=10;rounded=1;" vertex="1" parent="YrpZZZnXuAw49HL5LtXr-524">
          <mxGeometry x="220" width="110" height="18" as="geometry">
            <mxRectangle width="110" height="18" as="alternateBounds" />
          </mxGeometry>
        </mxCell>
        <mxCell id="YrpZZZnXuAw49HL5LtXr-528" value="0" style="connectable=0;recursiveResize=0;fontStyle=0;align=center;whiteSpace=wrap;html=1;fontColor=#808080;fontSize=10;rounded=1;" vertex="1" parent="YrpZZZnXuAw49HL5LtXr-524">
          <mxGeometry x="330" width="110" height="18" as="geometry">
            <mxRectangle width="110" height="18" as="alternateBounds" />
          </mxGeometry>
        </mxCell>
        <mxCell id="YrpZZZnXuAw49HL5LtXr-529" value="1,9" style="connectable=0;recursiveResize=0;fontStyle=0;align=center;whiteSpace=wrap;html=1;fontColor=#808080;fontSize=10;rounded=1;" vertex="1" parent="YrpZZZnXuAw49HL5LtXr-524">
          <mxGeometry x="440" width="110" height="18" as="geometry">
            <mxRectangle width="110" height="18" as="alternateBounds" />
          </mxGeometry>
        </mxCell>
        <mxCell id="YrpZZZnXuAw49HL5LtXr-530" value="2,7" style="connectable=0;recursiveResize=0;fontStyle=0;align=center;whiteSpace=wrap;html=1;fontColor=#808080;fontSize=10;rounded=1;" vertex="1" parent="YrpZZZnXuAw49HL5LtXr-524">
          <mxGeometry x="550" width="110" height="18" as="geometry">
            <mxRectangle width="110" height="18" as="alternateBounds" />
          </mxGeometry>
        </mxCell>
        <mxCell id="YrpZZZnXuAw49HL5LtXr-531" value="2,7" style="connectable=0;recursiveResize=0;fontStyle=0;align=center;whiteSpace=wrap;html=1;fontColor=#808080;fontSize=10;rounded=1;" vertex="1" parent="YrpZZZnXuAw49HL5LtXr-524">
          <mxGeometry x="660" width="110" height="18" as="geometry">
            <mxRectangle width="110" height="18" as="alternateBounds" />
          </mxGeometry>
        </mxCell>
        <mxCell id="YrpZZZnXuAw49HL5LtXr-532" value="2,3" style="connectable=0;recursiveResize=0;fontStyle=0;align=center;whiteSpace=wrap;html=1;fontColor=#808080;fontSize=10;rounded=1;" vertex="1" parent="YrpZZZnXuAw49HL5LtXr-524">
          <mxGeometry x="770" width="110" height="18" as="geometry">
            <mxRectangle width="110" height="18" as="alternateBounds" />
          </mxGeometry>
        </mxCell>
        <mxCell id="YrpZZZnXuAw49HL5LtXr-533" value="" style="shape=tableRow;horizontal=0;startSize=0;swimlaneHead=0;swimlaneBody=0;top=0;left=0;bottom=0;right=0;dropTarget=0;collapsible=0;recursiveResize=0;expand=0;fontStyle=1;fontSize=10;rounded=1;" vertex="1" parent="YrpZZZnXuAw49HL5LtXr-496">
          <mxGeometry y="72" width="880" height="18" as="geometry" />
        </mxCell>
        <mxCell id="YrpZZZnXuAw49HL5LtXr-534" value="1717 E 7th St" style="connectable=0;recursiveResize=0;whiteSpace=wrap;html=1;fontStyle=1;fontSize=10;rounded=1;" vertex="1" parent="YrpZZZnXuAw49HL5LtXr-533">
          <mxGeometry width="110" height="18" as="geometry">
            <mxRectangle width="110" height="18" as="alternateBounds" />
          </mxGeometry>
        </mxCell>
        <mxCell id="YrpZZZnXuAw49HL5LtXr-535" value="0,91" style="connectable=0;recursiveResize=0;whiteSpace=wrap;html=1;fontColor=#808080;fontSize=10;rounded=1;" vertex="1" parent="YrpZZZnXuAw49HL5LtXr-533">
          <mxGeometry x="110" width="110" height="18" as="geometry">
            <mxRectangle width="110" height="18" as="alternateBounds" />
          </mxGeometry>
        </mxCell>
        <mxCell id="YrpZZZnXuAw49HL5LtXr-536" value="1,9" style="connectable=0;recursiveResize=0;whiteSpace=wrap;html=1;fontColor=#808080;fontSize=10;rounded=1;" vertex="1" parent="YrpZZZnXuAw49HL5LtXr-533">
          <mxGeometry x="220" width="110" height="18" as="geometry">
            <mxRectangle width="110" height="18" as="alternateBounds" />
          </mxGeometry>
        </mxCell>
        <mxCell id="YrpZZZnXuAw49HL5LtXr-537" value="1,9" style="connectable=0;recursiveResize=0;whiteSpace=wrap;html=1;fontColor=#808080;fontSize=10;rounded=1;" vertex="1" parent="YrpZZZnXuAw49HL5LtXr-533">
          <mxGeometry x="330" width="110" height="18" as="geometry">
            <mxRectangle width="110" height="18" as="alternateBounds" />
          </mxGeometry>
        </mxCell>
        <mxCell id="YrpZZZnXuAw49HL5LtXr-538" value="0" style="connectable=0;recursiveResize=0;whiteSpace=wrap;html=1;fontColor=#808080;fontSize=10;rounded=1;" vertex="1" parent="YrpZZZnXuAw49HL5LtXr-533">
          <mxGeometry x="440" width="110" height="18" as="geometry">
            <mxRectangle width="110" height="18" as="alternateBounds" />
          </mxGeometry>
        </mxCell>
        <mxCell id="YrpZZZnXuAw49HL5LtXr-539" value="1,9" style="connectable=0;recursiveResize=0;whiteSpace=wrap;html=1;fontColor=#808080;fontSize=10;rounded=1;" vertex="1" parent="YrpZZZnXuAw49HL5LtXr-533">
          <mxGeometry x="550" width="110" height="18" as="geometry">
            <mxRectangle width="110" height="18" as="alternateBounds" />
          </mxGeometry>
        </mxCell>
        <mxCell id="YrpZZZnXuAw49HL5LtXr-540" value="1,5" style="connectable=0;recursiveResize=0;whiteSpace=wrap;html=1;fontColor=#808080;fontSize=10;rounded=1;" vertex="1" parent="YrpZZZnXuAw49HL5LtXr-533">
          <mxGeometry x="660" width="110" height="18" as="geometry">
            <mxRectangle width="110" height="18" as="alternateBounds" />
          </mxGeometry>
        </mxCell>
        <mxCell id="YrpZZZnXuAw49HL5LtXr-541" value="1,2" style="connectable=0;recursiveResize=0;whiteSpace=wrap;html=1;fontColor=#808080;fontSize=10;rounded=1;" vertex="1" parent="YrpZZZnXuAw49HL5LtXr-533">
          <mxGeometry x="770" width="110" height="18" as="geometry">
            <mxRectangle width="110" height="18" as="alternateBounds" />
          </mxGeometry>
        </mxCell>
        <mxCell id="YrpZZZnXuAw49HL5LtXr-542" value="" style="shape=tableRow;horizontal=0;startSize=0;swimlaneHead=0;swimlaneBody=0;top=0;left=0;bottom=0;right=0;dropTarget=0;collapsible=0;recursiveResize=0;expand=0;fontStyle=1;fontSize=10;rounded=1;" vertex="1" parent="YrpZZZnXuAw49HL5LtXr-496">
          <mxGeometry y="90" width="880" height="18" as="geometry" />
        </mxCell>
        <mxCell id="YrpZZZnXuAw49HL5LtXr-543" value="1917 Bay St" style="connectable=0;recursiveResize=0;whiteSpace=wrap;html=1;fontStyle=1;fontSize=10;rounded=1;" vertex="1" parent="YrpZZZnXuAw49HL5LtXr-542">
          <mxGeometry width="110" height="18" as="geometry">
            <mxRectangle width="110" height="18" as="alternateBounds" />
          </mxGeometry>
        </mxCell>
        <mxCell id="YrpZZZnXuAw49HL5LtXr-544" value="1,4" style="connectable=0;recursiveResize=0;whiteSpace=wrap;html=1;fontColor=#808080;fontSize=10;rounded=1;" vertex="1" parent="YrpZZZnXuAw49HL5LtXr-542">
          <mxGeometry x="110" width="110" height="18" as="geometry">
            <mxRectangle width="110" height="18" as="alternateBounds" />
          </mxGeometry>
        </mxCell>
        <mxCell id="YrpZZZnXuAw49HL5LtXr-545" value="2" style="connectable=0;recursiveResize=0;whiteSpace=wrap;html=1;fontColor=#808080;fontSize=10;rounded=1;" vertex="1" parent="YrpZZZnXuAw49HL5LtXr-542">
          <mxGeometry x="220" width="110" height="18" as="geometry">
            <mxRectangle width="110" height="18" as="alternateBounds" />
          </mxGeometry>
        </mxCell>
        <mxCell id="YrpZZZnXuAw49HL5LtXr-546" value="2,7" style="connectable=0;recursiveResize=0;whiteSpace=wrap;html=1;fontColor=#808080;fontSize=10;rounded=1;" vertex="1" parent="YrpZZZnXuAw49HL5LtXr-542">
          <mxGeometry x="330" width="110" height="18" as="geometry">
            <mxRectangle width="110" height="18" as="alternateBounds" />
          </mxGeometry>
        </mxCell>
        <mxCell id="YrpZZZnXuAw49HL5LtXr-547" value="0,75" style="connectable=0;recursiveResize=0;whiteSpace=wrap;html=1;fontColor=#808080;fontSize=10;rounded=1;" vertex="1" parent="YrpZZZnXuAw49HL5LtXr-542">
          <mxGeometry x="440" width="110" height="18" as="geometry">
            <mxRectangle width="110" height="18" as="alternateBounds" />
          </mxGeometry>
        </mxCell>
        <mxCell id="YrpZZZnXuAw49HL5LtXr-548" value="0" style="connectable=0;recursiveResize=0;whiteSpace=wrap;html=1;fontColor=#808080;fontSize=10;rounded=1;" vertex="1" parent="YrpZZZnXuAw49HL5LtXr-542">
          <mxGeometry x="550" width="110" height="18" as="geometry">
            <mxRectangle width="110" height="18" as="alternateBounds" />
          </mxGeometry>
        </mxCell>
        <mxCell id="YrpZZZnXuAw49HL5LtXr-549" value="1,4" style="connectable=0;recursiveResize=0;whiteSpace=wrap;html=1;fontColor=#808080;fontSize=10;rounded=1;" vertex="1" parent="YrpZZZnXuAw49HL5LtXr-542">
          <mxGeometry x="660" width="110" height="18" as="geometry">
            <mxRectangle width="110" height="18" as="alternateBounds" />
          </mxGeometry>
        </mxCell>
        <mxCell id="YrpZZZnXuAw49HL5LtXr-550" value="1,2" style="connectable=0;recursiveResize=0;whiteSpace=wrap;html=1;fontColor=#808080;fontSize=10;rounded=1;" vertex="1" parent="YrpZZZnXuAw49HL5LtXr-542">
          <mxGeometry x="770" width="110" height="18" as="geometry">
            <mxRectangle width="110" height="18" as="alternateBounds" />
          </mxGeometry>
        </mxCell>
        <mxCell id="YrpZZZnXuAw49HL5LtXr-551" value="" style="shape=tableRow;horizontal=0;startSize=0;swimlaneHead=0;swimlaneBody=0;top=0;left=0;bottom=0;right=0;dropTarget=0;collapsible=0;recursiveResize=0;expand=0;fontStyle=1;fontSize=10;rounded=1;" vertex="1" parent="YrpZZZnXuAw49HL5LtXr-496">
          <mxGeometry y="108" width="880" height="18" as="geometry" />
        </mxCell>
        <mxCell id="YrpZZZnXuAw49HL5LtXr-552" value="1811 E 20th St" style="connectable=0;recursiveResize=0;whiteSpace=wrap;html=1;fontStyle=1;fontSize=10;rounded=1;" vertex="1" parent="YrpZZZnXuAw49HL5LtXr-551">
          <mxGeometry width="110" height="18" as="geometry">
            <mxRectangle width="110" height="18" as="alternateBounds" />
          </mxGeometry>
        </mxCell>
        <mxCell id="YrpZZZnXuAw49HL5LtXr-553" value="1,7" style="connectable=0;recursiveResize=0;whiteSpace=wrap;html=1;fontColor=#808080;fontSize=10;rounded=1;" vertex="1" parent="YrpZZZnXuAw49HL5LtXr-551">
          <mxGeometry x="110" width="110" height="18" as="geometry">
            <mxRectangle width="110" height="18" as="alternateBounds" />
          </mxGeometry>
        </mxCell>
        <mxCell id="YrpZZZnXuAw49HL5LtXr-554" value="1,7" style="connectable=0;recursiveResize=0;whiteSpace=wrap;html=1;fontColor=#808080;fontSize=10;rounded=1;" vertex="1" parent="YrpZZZnXuAw49HL5LtXr-551">
          <mxGeometry x="220" width="110" height="18" as="geometry">
            <mxRectangle width="110" height="18" as="alternateBounds" />
          </mxGeometry>
        </mxCell>
        <mxCell id="YrpZZZnXuAw49HL5LtXr-555" value="2,7" style="connectable=0;recursiveResize=0;whiteSpace=wrap;html=1;fontColor=#808080;fontSize=10;rounded=1;" vertex="1" parent="YrpZZZnXuAw49HL5LtXr-551">
          <mxGeometry x="330" width="110" height="18" as="geometry">
            <mxRectangle width="110" height="18" as="alternateBounds" />
          </mxGeometry>
        </mxCell>
        <mxCell id="YrpZZZnXuAw49HL5LtXr-556" value="1,5" style="connectable=0;recursiveResize=0;whiteSpace=wrap;html=1;fontColor=#808080;fontSize=10;rounded=1;" vertex="1" parent="YrpZZZnXuAw49HL5LtXr-551">
          <mxGeometry x="440" width="110" height="18" as="geometry">
            <mxRectangle width="110" height="18" as="alternateBounds" />
          </mxGeometry>
        </mxCell>
        <mxCell id="YrpZZZnXuAw49HL5LtXr-557" value="1,4" style="connectable=0;recursiveResize=0;whiteSpace=wrap;html=1;fontColor=#808080;fontSize=10;rounded=1;" vertex="1" parent="YrpZZZnXuAw49HL5LtXr-551">
          <mxGeometry x="550" width="110" height="18" as="geometry">
            <mxRectangle width="110" height="18" as="alternateBounds" />
          </mxGeometry>
        </mxCell>
        <mxCell id="YrpZZZnXuAw49HL5LtXr-558" value="0" style="connectable=0;recursiveResize=0;whiteSpace=wrap;html=1;fontColor=#808080;fontSize=10;rounded=1;" vertex="1" parent="YrpZZZnXuAw49HL5LtXr-551">
          <mxGeometry x="660" width="110" height="18" as="geometry">
            <mxRectangle width="110" height="18" as="alternateBounds" />
          </mxGeometry>
        </mxCell>
        <mxCell id="YrpZZZnXuAw49HL5LtXr-559" value="0,57" style="connectable=0;recursiveResize=0;whiteSpace=wrap;html=1;fontColor=#808080;fontSize=10;rounded=1;" vertex="1" parent="YrpZZZnXuAw49HL5LtXr-551">
          <mxGeometry x="770" width="110" height="18" as="geometry">
            <mxRectangle width="110" height="18" as="alternateBounds" />
          </mxGeometry>
        </mxCell>
        <mxCell id="YrpZZZnXuAw49HL5LtXr-560" value="" style="shape=tableRow;horizontal=0;startSize=0;swimlaneHead=0;swimlaneBody=0;top=0;left=0;bottom=0;right=0;dropTarget=0;collapsible=0;recursiveResize=0;expand=0;fontStyle=1;fontSize=10;rounded=1;" vertex="1" parent="YrpZZZnXuAw49HL5LtXr-496">
          <mxGeometry y="126" width="880" height="18" as="geometry" />
        </mxCell>
        <mxCell id="YrpZZZnXuAw49HL5LtXr-561" value="615 S Broadway" style="connectable=0;recursiveResize=0;whiteSpace=wrap;html=1;fontStyle=1;fontSize=10;rounded=1;" vertex="1" parent="YrpZZZnXuAw49HL5LtXr-560">
          <mxGeometry width="110" height="18" as="geometry">
            <mxRectangle width="110" height="18" as="alternateBounds" />
          </mxGeometry>
        </mxCell>
        <mxCell id="YrpZZZnXuAw49HL5LtXr-562" value="1,1" style="connectable=0;recursiveResize=0;whiteSpace=wrap;html=1;fontColor=#808080;fontSize=10;rounded=1;" vertex="1" parent="YrpZZZnXuAw49HL5LtXr-560">
          <mxGeometry x="110" width="110" height="18" as="geometry">
            <mxRectangle width="110" height="18" as="alternateBounds" />
          </mxGeometry>
        </mxCell>
        <mxCell id="YrpZZZnXuAw49HL5LtXr-563" value="1,2" style="connectable=0;recursiveResize=0;whiteSpace=wrap;html=1;fontColor=#808080;fontSize=10;rounded=1;" vertex="1" parent="YrpZZZnXuAw49HL5LtXr-560">
          <mxGeometry x="220" width="110" height="18" as="geometry">
            <mxRectangle width="110" height="18" as="alternateBounds" />
          </mxGeometry>
        </mxCell>
        <mxCell id="YrpZZZnXuAw49HL5LtXr-564" value="2,3" style="connectable=0;recursiveResize=0;whiteSpace=wrap;html=1;fontColor=#808080;fontSize=10;rounded=1;" vertex="1" parent="YrpZZZnXuAw49HL5LtXr-560">
          <mxGeometry x="330" width="110" height="18" as="geometry">
            <mxRectangle width="110" height="18" as="alternateBounds" />
          </mxGeometry>
        </mxCell>
        <mxCell id="YrpZZZnXuAw49HL5LtXr-565" value="2,3" style="connectable=0;recursiveResize=0;whiteSpace=wrap;html=1;fontColor=#808080;fontSize=10;rounded=1;" vertex="1" parent="YrpZZZnXuAw49HL5LtXr-560">
          <mxGeometry x="440" width="110" height="18" as="geometry">
            <mxRectangle width="110" height="18" as="alternateBounds" />
          </mxGeometry>
        </mxCell>
        <mxCell id="YrpZZZnXuAw49HL5LtXr-566" value="1,2" style="connectable=0;recursiveResize=0;whiteSpace=wrap;html=1;fontColor=#808080;fontSize=10;rounded=1;" vertex="1" parent="YrpZZZnXuAw49HL5LtXr-560">
          <mxGeometry x="550" width="110" height="18" as="geometry">
            <mxRectangle width="110" height="18" as="alternateBounds" />
          </mxGeometry>
        </mxCell>
        <mxCell id="YrpZZZnXuAw49HL5LtXr-567" value="0,57" style="connectable=0;recursiveResize=0;whiteSpace=wrap;html=1;fontColor=#808080;fontSize=10;rounded=1;" vertex="1" parent="YrpZZZnXuAw49HL5LtXr-560">
          <mxGeometry x="660" width="110" height="18" as="geometry">
            <mxRectangle width="110" height="18" as="alternateBounds" />
          </mxGeometry>
        </mxCell>
        <mxCell id="YrpZZZnXuAw49HL5LtXr-568" value="0" style="connectable=0;recursiveResize=0;whiteSpace=wrap;html=1;fontColor=#808080;fontSize=10;rounded=1;" vertex="1" parent="YrpZZZnXuAw49HL5LtXr-560">
          <mxGeometry x="770" width="110" height="18" as="geometry">
            <mxRectangle width="110" height="18" as="alternateBounds" />
          </mxGeometry>
        </mxCell>
        <mxCell id="YrpZZZnXuAw49HL5LtXr-575" value="" style="endArrow=classic;html=1;rounded=1;exitX=1;exitY=0.5;exitDx=0;exitDy=0;entryX=0;entryY=1;entryDx=0;entryDy=0;" edge="1" parent="1" source="YrpZZZnXuAw49HL5LtXr-150" target="YrpZZZnXuAw49HL5LtXr-287">
          <mxGeometry width="50" height="50" relative="1" as="geometry">
            <mxPoint x="1070" y="1437" as="sourcePoint" />
            <mxPoint x="1140" y="1382" as="targetPoint" />
          </mxGeometry>
        </mxCell>
        <mxCell id="YrpZZZnXuAw49HL5LtXr-576" value="" style="endArrow=classic;html=1;rounded=1;entryX=0;entryY=0;entryDx=0;entryDy=0;exitX=1;exitY=0.5;exitDx=0;exitDy=0;" edge="1" parent="1" source="YrpZZZnXuAw49HL5LtXr-152" target="YrpZZZnXuAw49HL5LtXr-533">
          <mxGeometry width="50" height="50" relative="1" as="geometry">
            <mxPoint x="1100" y="1533" as="sourcePoint" />
            <mxPoint x="1181" y="1532.52" as="targetPoint" />
          </mxGeometry>
        </mxCell>
        <mxCell id="XJxLE5m_I-K4SvwRsQMy-3" value="Personal" style="whiteSpace=wrap;html=1;rounded=1;fillColor=#fa6800;fontColor=#000000;strokeColor=#C73500;" vertex="1" parent="1">
          <mxGeometry x="-445" y="763" width="120" height="30" as="geometry" />
        </mxCell>
        <mxCell id="XJxLE5m_I-K4SvwRsQMy-4" value="" style="rounded=1;orthogonalLoop=1;jettySize=auto;html=1;exitX=0;exitY=0.5;exitDx=0;exitDy=0;entryX=1;entryY=0.5;entryDx=0;entryDy=0;edgeStyle=orthogonalEdgeStyle;fillColor=#fa6800;strokeColor=#C73500;" edge="1" parent="1" source="YrpZZZnXuAw49HL5LtXr-30" target="YrpZZZnXuAw49HL5LtXr-36">
          <mxGeometry relative="1" as="geometry">
            <mxPoint x="-247" y="728.5" as="sourcePoint" />
            <mxPoint x="-315" y="728.5" as="targetPoint" />
          </mxGeometry>
        </mxCell>
        <mxCell id="XJxLE5m_I-K4SvwRsQMy-13" value="" style="edgeStyle=orthogonalEdgeStyle;shape=connector;rounded=1;orthogonalLoop=1;jettySize=auto;html=1;labelBackgroundColor=default;strokeColor=default;align=center;verticalAlign=middle;fontFamily=Helvetica;fontSize=11;fontColor=default;endArrow=classic;entryX=1;entryY=0.5;entryDx=0;entryDy=0;" edge="1" parent="1" source="XJxLE5m_I-K4SvwRsQMy-8" target="XJxLE5m_I-K4SvwRsQMy-15">
          <mxGeometry relative="1" as="geometry" />
        </mxCell>
        <mxCell id="XJxLE5m_I-K4SvwRsQMy-14" value="" style="edgeStyle=orthogonalEdgeStyle;shape=connector;rounded=1;orthogonalLoop=1;jettySize=auto;html=1;labelBackgroundColor=default;strokeColor=default;align=center;verticalAlign=middle;fontFamily=Helvetica;fontSize=11;fontColor=default;endArrow=classic;entryX=1;entryY=0.5;entryDx=0;entryDy=0;" edge="1" parent="1" source="XJxLE5m_I-K4SvwRsQMy-8" target="XJxLE5m_I-K4SvwRsQMy-12">
          <mxGeometry relative="1" as="geometry" />
        </mxCell>
        <mxCell id="XJxLE5m_I-K4SvwRsQMy-8" value="Rota Traçada" style="whiteSpace=wrap;html=1;rounded=1;fillColor=#fa6800;fontColor=#000000;strokeColor=#C73500;" vertex="1" parent="1">
          <mxGeometry x="-445" y="972.5" width="120" height="30" as="geometry" />
        </mxCell>
        <mxCell id="XJxLE5m_I-K4SvwRsQMy-9" value="" style="rounded=1;orthogonalLoop=1;jettySize=auto;html=1;entryX=1;entryY=0.5;entryDx=0;entryDy=0;edgeStyle=orthogonalEdgeStyle;exitX=0;exitY=0.5;exitDx=0;exitDy=0;" edge="1" parent="1" source="YrpZZZnXuAw49HL5LtXr-63" target="XJxLE5m_I-K4SvwRsQMy-8">
          <mxGeometry relative="1" as="geometry">
            <mxPoint x="-240" y="920" as="sourcePoint" />
            <mxPoint x="-290" y="885" as="targetPoint" />
          </mxGeometry>
        </mxCell>
        <mxCell id="XJxLE5m_I-K4SvwRsQMy-10" value="Barra de Zoom" style="whiteSpace=wrap;html=1;rounded=1;fillColor=#fa6800;fontColor=#000000;strokeColor=#C73500;" vertex="1" parent="1">
          <mxGeometry x="-445" y="1101.5" width="120" height="30" as="geometry" />
        </mxCell>
        <mxCell id="XJxLE5m_I-K4SvwRsQMy-11" value="" style="endArrow=classic;html=1;rounded=1;exitX=0;exitY=0.5;exitDx=0;exitDy=0;entryX=1;entryY=0.5;entryDx=0;entryDy=0;edgeStyle=orthogonalEdgeStyle;" edge="1" parent="1" source="YrpZZZnXuAw49HL5LtXr-73" target="XJxLE5m_I-K4SvwRsQMy-10">
          <mxGeometry width="50" height="50" relative="1" as="geometry">
            <mxPoint x="-234" y="1052" as="sourcePoint" />
            <mxPoint x="-315" y="1091" as="targetPoint" />
          </mxGeometry>
        </mxCell>
        <mxCell id="XJxLE5m_I-K4SvwRsQMy-12" value="Porto A" style="whiteSpace=wrap;html=1;rounded=1;fillColor=#fa6800;fontColor=#000000;strokeColor=#C73500;" vertex="1" parent="1">
          <mxGeometry x="-640" y="938" width="120" height="30" as="geometry" />
        </mxCell>
        <mxCell id="XJxLE5m_I-K4SvwRsQMy-15" value="Porto B" style="whiteSpace=wrap;html=1;rounded=1;fillColor=#fa6800;fontColor=#000000;strokeColor=#C73500;" vertex="1" parent="1">
          <mxGeometry x="-640" y="972" width="120" height="30" as="geometry" />
        </mxCell>
        <mxCell id="XJxLE5m_I-K4SvwRsQMy-16" value="Linha tracejada" style="whiteSpace=wrap;html=1;rounded=1;fillColor=#fa6800;fontColor=#000000;strokeColor=#C73500;" vertex="1" parent="1">
          <mxGeometry x="-640" y="1006.5" width="120" height="30" as="geometry" />
        </mxCell>
        <mxCell id="XJxLE5m_I-K4SvwRsQMy-17" value="" style="edgeStyle=orthogonalEdgeStyle;shape=connector;rounded=1;orthogonalLoop=1;jettySize=auto;html=1;labelBackgroundColor=default;strokeColor=default;align=center;verticalAlign=middle;fontFamily=Helvetica;fontSize=11;fontColor=default;endArrow=classic;entryX=1;entryY=0.5;entryDx=0;entryDy=0;exitX=0;exitY=0.5;exitDx=0;exitDy=0;" edge="1" parent="1" source="XJxLE5m_I-K4SvwRsQMy-8" target="XJxLE5m_I-K4SvwRsQMy-16">
          <mxGeometry relative="1" as="geometry">
            <mxPoint x="-435" y="997" as="sourcePoint" />
            <mxPoint x="-510" y="978" as="targetPoint" />
          </mxGeometry>
        </mxCell>
        <mxCell id="XJxLE5m_I-K4SvwRsQMy-18" value="Barra de Zoom" style="whiteSpace=wrap;html=1;rounded=1;fillColor=#fa6800;fontColor=#000000;strokeColor=#C73500;" vertex="1" parent="1">
          <mxGeometry x="1370" y="1956" width="120" height="30" as="geometry" />
        </mxCell>
        <mxCell id="XJxLE5m_I-K4SvwRsQMy-19" value="" style="endArrow=classic;html=1;rounded=1;entryX=0;entryY=0.5;entryDx=0;entryDy=0;exitX=1;exitY=0.5;exitDx=0;exitDy=0;edgeStyle=orthogonalEdgeStyle;fillColor=#fa6800;strokeColor=#C73500;" edge="1" parent="1" source="YrpZZZnXuAw49HL5LtXr-246" target="XJxLE5m_I-K4SvwRsQMy-18">
          <mxGeometry width="50" height="50" relative="1" as="geometry">
            <mxPoint x="1280" y="1930" as="sourcePoint" />
            <mxPoint x="1334" y="1920" as="targetPoint" />
          </mxGeometry>
        </mxCell>
        <mxCell id="XJxLE5m_I-K4SvwRsQMy-20" value="" style="rounded=1;orthogonalLoop=1;jettySize=auto;html=1;edgeStyle=orthogonalEdgeStyle;fillColor=#fa6800;strokeColor=#C73500;" edge="1" parent="1" source="XJxLE5m_I-K4SvwRsQMy-21" target="XJxLE5m_I-K4SvwRsQMy-22">
          <mxGeometry relative="1" as="geometry" />
        </mxCell>
        <mxCell id="XJxLE5m_I-K4SvwRsQMy-21" value="Movimentos da Tela" style="whiteSpace=wrap;html=1;rounded=1;fillColor=#fa6800;fontColor=#000000;strokeColor=#C73500;" vertex="1" parent="1">
          <mxGeometry x="1160" y="2000" width="120" height="30" as="geometry" />
        </mxCell>
        <mxCell id="XJxLE5m_I-K4SvwRsQMy-22" value="Mouse" style="whiteSpace=wrap;html=1;rounded=1;fillColor=#fa6800;fontColor=#000000;strokeColor=#C73500;" vertex="1" parent="1">
          <mxGeometry x="1370" y="2000" width="120" height="30" as="geometry" />
        </mxCell>
        <mxCell id="XJxLE5m_I-K4SvwRsQMy-23" value="Touchpad" style="whiteSpace=wrap;html=1;rounded=1;fillColor=#fa6800;fontColor=#000000;strokeColor=#C73500;" vertex="1" parent="1">
          <mxGeometry x="1370" y="2040" width="120" height="30" as="geometry" />
        </mxCell>
        <mxCell id="XJxLE5m_I-K4SvwRsQMy-24" value="" style="endArrow=classic;html=1;rounded=1;entryX=0;entryY=0.5;entryDx=0;entryDy=0;edgeStyle=orthogonalEdgeStyle;fillColor=#fa6800;strokeColor=#C73500;" edge="1" parent="1" target="XJxLE5m_I-K4SvwRsQMy-23">
          <mxGeometry width="50" height="50" relative="1" as="geometry">
            <mxPoint x="1280" y="2015" as="sourcePoint" />
            <mxPoint x="1194" y="1780" as="targetPoint" />
          </mxGeometry>
        </mxCell>
        <mxCell id="XJxLE5m_I-K4SvwRsQMy-27" value="" style="endArrow=classic;html=1;rounded=1;exitX=1;exitY=0.5;exitDx=0;exitDy=0;entryX=0;entryY=0.5;entryDx=0;entryDy=0;edgeStyle=orthogonalEdgeStyle;" edge="1" parent="1" source="YrpZZZnXuAw49HL5LtXr-239" target="YrpZZZnXuAw49HL5LtXr-242">
          <mxGeometry width="50" height="50" relative="1" as="geometry">
            <mxPoint x="1290" y="1745" as="sourcePoint" />
            <mxPoint x="1380" y="1775" as="targetPoint" />
          </mxGeometry>
        </mxCell>
        <mxCell id="XJxLE5m_I-K4SvwRsQMy-28" value="" style="endArrow=classic;html=1;rounded=1;exitX=1;exitY=0.5;exitDx=0;exitDy=0;entryX=0;entryY=0.5;entryDx=0;entryDy=0;edgeStyle=orthogonalEdgeStyle;" edge="1" parent="1" source="YrpZZZnXuAw49HL5LtXr-239" target="YrpZZZnXuAw49HL5LtXr-252">
          <mxGeometry width="50" height="50" relative="1" as="geometry">
            <mxPoint x="1300" y="1755" as="sourcePoint" />
            <mxPoint x="1380" y="1815" as="targetPoint" />
          </mxGeometry>
        </mxCell>
        <mxCell id="XJxLE5m_I-K4SvwRsQMy-29" value="" style="endArrow=classic;html=1;rounded=1;entryX=0;entryY=0.5;entryDx=0;entryDy=0;exitX=1;exitY=0.5;exitDx=0;exitDy=0;" edge="1" parent="1" source="YrpZZZnXuAw49HL5LtXr-154" target="XJxLE5m_I-K4SvwRsQMy-21">
          <mxGeometry width="50" height="50" relative="1" as="geometry">
            <mxPoint x="1090" y="1790" as="sourcePoint" />
            <mxPoint x="1170" y="1900" as="targetPoint" />
          </mxGeometry>
        </mxCell>
      </root>
    </mxGraphModel>
  </diagram>
</mxfile>
